<svg width="34" height="39" viewBox="0 0 34 39" fill="none" xmlns="http://www.w3.org/2000/svg">
<path d="M17 39C19.6805 39 21.8549 36.8177 21.8549 34.125H12.1451C12.1451 36.8177 14.3195 39 17 39ZM33.3465 27.5963C31.8803 26.015 29.1368 23.6361 29.1368 15.8438C29.1368 9.9252 25.0021 5.1873 19.427 4.02492V2.4375C19.427 1.09154 18.3403 0 17 0C15.6597 0 14.573 1.09154 14.573 2.4375V4.02492C8.99788 5.1873 4.86325 9.9252 4.86325 15.8438C4.86325 23.6361 2.11973 26.015 0.653488 27.5963C0.198132 28.0876 -0.00374216 28.6749 5.24713e-05 29.25C0.00840066 30.4992 0.985139 31.6875 2.43621 31.6875H31.5638C33.0149 31.6875 33.9924 30.4992 34 29.25C34.0037 28.6749 33.8019 28.0869 33.3465 27.5963Z" fill="#C5C7CD"/>
</svg>
