<svg width="14" height="15" viewBox="0 0 14 15" fill="none" xmlns="http://www.w3.org/2000/svg">
<path d="M6.25102 1.13686V7.30724C5.80417 7.41214 5.4059 7.66499 5.12084 8.02473C4.83578 8.38447 4.68066 8.83 4.68066 9.28899C4.68066 9.74798 4.83578 10.1935 5.12084 10.5532C5.4059 10.913 5.80417 11.1658 6.25102 11.2707V13.9674C6.25102 14.0953 6.30186 14.2181 6.39236 14.3086C6.48286 14.3991 6.6056 14.4499 6.73358 14.4499C6.86157 14.4499 6.98432 14.3991 7.07482 14.3086C7.16532 14.2181 7.21615 14.0953 7.21615 13.9674V11.2695C7.66299 11.1646 8.06128 10.9118 8.34634 10.552C8.63141 10.1923 8.78652 9.74679 8.78652 9.28779C8.78652 8.8288 8.63141 8.38327 8.34634 8.02353C8.06128 7.66379 7.66299 7.41095 7.21615 7.30604V1.13686C7.21615 1.00888 7.16532 0.886136 7.07482 0.795637C6.98432 0.705138 6.86157 0.654297 6.73358 0.654297C6.6056 0.654297 6.48286 0.705138 6.39236 0.795637C6.30186 0.886136 6.25102 1.00888 6.25102 1.13686ZM7.80768 9.27941C7.80768 9.49256 7.74448 9.70092 7.62607 9.87814C7.50765 10.0554 7.33933 10.1935 7.1424 10.2751C6.94548 10.3566 6.7288 10.378 6.51975 10.3364C6.3107 10.2948 6.11867 10.1922 5.96796 10.0415C5.81724 9.89073 5.7146 9.69871 5.67302 9.48966C5.63144 9.2806 5.65277 9.06392 5.73434 8.86699C5.81591 8.67007 5.95404 8.50176 6.13127 8.38334C6.30849 8.26492 6.51685 8.20172 6.73 8.20172C6.87233 8.20171 7.01325 8.2299 7.14463 8.28466C7.27601 8.33942 7.39524 8.41966 7.49544 8.52075C7.59564 8.62184 7.67483 8.74177 7.72842 8.87363C7.78201 9.00549 7.80895 9.14666 7.80768 9.28899V9.27941Z" fill="#F7F8FA"/>
<path d="M1.57037 1.13686V4.10051C1.12352 4.20542 0.725249 4.45826 0.440184 4.818C0.15512 5.17775 0 5.62327 0 6.08226C0 6.54126 0.15512 6.98678 0.440184 7.34652C0.725249 7.70626 1.12352 7.95911 1.57037 8.06401V13.9674C1.57037 14.0953 1.62121 14.2181 1.71171 14.3086C1.80221 14.3991 1.92495 14.4499 2.05293 14.4499C2.18092 14.4499 2.30366 14.3991 2.39416 14.3086C2.48466 14.2181 2.5355 14.0953 2.5355 13.9674V8.06401C2.98234 7.95911 3.38062 7.70626 3.66568 7.34652C3.95075 6.98678 4.10587 6.54126 4.10587 6.08226C4.10587 5.62327 3.95075 5.17775 3.66568 4.818C3.38062 4.45826 2.98234 4.20542 2.5355 4.10051V1.13686C2.5355 1.00888 2.48466 0.886136 2.39416 0.795637C2.30366 0.705138 2.18092 0.654297 2.05293 0.654297C1.92495 0.654297 1.80221 0.705138 1.71171 0.795637C1.62121 0.886136 1.57037 1.00888 1.57037 1.13686ZM3.12703 6.08226C3.12701 6.29469 3.0642 6.50237 2.94651 6.67922C2.82881 6.85606 2.66148 6.99418 2.46553 7.07621C2.26959 7.15825 2.05376 7.18055 1.84518 7.14031C1.6366 7.10006 1.44457 6.99908 1.2932 6.85003C1.14184 6.70099 1.0379 6.51053 0.994443 6.3026C0.950986 6.09466 0.969951 5.87852 1.04895 5.68133C1.12796 5.48414 1.26347 5.3147 1.43848 5.19429C1.61349 5.07388 1.82018 5.00788 2.03258 5.00457H2.08287C2.36284 5.01329 2.62842 5.13066 2.82333 5.33183C3.01824 5.533 3.12717 5.80216 3.12703 6.08226Z" fill="#F7F8FA"/>
<path d="M10.9293 1.13686V4.10051C10.4824 4.20542 10.0841 4.45826 9.79908 4.818C9.51402 5.17775 9.35889 5.62327 9.35889 6.08226C9.35889 6.54126 9.51402 6.98678 9.79908 7.34652C10.0841 7.70626 10.4824 7.95911 10.9293 8.06401V13.9674C10.9293 14.0953 10.9801 14.2181 11.0706 14.3086C11.1611 14.3991 11.2838 14.4499 11.4118 14.4499C11.5398 14.4499 11.6626 14.3991 11.7531 14.3086C11.8436 14.2181 11.8944 14.0953 11.8944 13.9674V8.06401C12.3413 7.95911 12.7395 7.70626 13.0246 7.34652C13.3096 6.98678 13.4648 6.54126 13.4648 6.08226C13.4648 5.62327 13.3096 5.17775 13.0246 4.818C12.7395 4.45826 12.3413 4.20542 11.8944 4.10051V1.13686C11.8944 1.00888 11.8436 0.886136 11.7531 0.795637C11.6626 0.705138 11.5398 0.654297 11.4118 0.654297C11.2838 0.654297 11.1611 0.705138 11.0706 0.795637C10.9801 0.886136 10.9293 1.00888 10.9293 1.13686ZM12.4859 6.07747C12.4859 6.2899 12.4231 6.49758 12.3054 6.67443C12.1877 6.85127 12.0204 6.98939 11.8244 7.07142C11.6285 7.15346 11.4127 7.17576 11.2041 7.13552C10.9955 7.09527 10.8035 6.99429 10.6521 6.84524C10.5007 6.6962 10.3968 6.50574 10.3533 6.29781C10.3099 6.08987 10.3288 5.87373 10.4078 5.67654C10.4869 5.47935 10.6224 5.30991 10.7974 5.1895C10.9724 5.06909 11.1791 5.00309 11.3915 4.99978H11.4418C11.7226 5.00852 11.9889 5.12656 12.1839 5.32876C12.3789 5.53096 12.4873 5.80133 12.4859 6.08226V6.07747Z" fill="#F7F8FA"/>
</svg>
