<svg width="52" height="40" viewBox="0 0 52 40" fill="none" xmlns="http://www.w3.org/2000/svg">
<path d="M37.3681 14.5C37.3681 6.76562 29.1064 0.4375 19.0869 0.4375C8.97943 0.4375 0.805603 6.76562 0.805603 14.5C0.805603 17.5762 2.03607 20.3008 4.14545 22.5859C2.91498 25.3105 0.981384 27.4199 0.981384 27.4199C0.805603 27.5957 0.717712 27.9473 0.805603 28.2109C0.981384 28.4746 1.15717 28.5625 1.50873 28.5625C4.67279 28.5625 7.30951 27.5078 9.2431 26.3652C12.0556 27.7715 15.4833 28.5625 19.0869 28.5625C29.1064 28.5625 37.3681 22.3223 37.3681 14.5ZM48.0908 33.8359C50.1122 31.5508 51.4306 28.8262 51.4306 25.75C51.4306 19.9492 46.6845 14.8516 40.0048 12.7422C40.0927 13.3574 40.1806 13.9727 40.1806 14.5C40.1806 23.8164 30.6884 31.375 19.0869 31.375C18.1201 31.375 17.1533 31.375 16.2744 31.2871C18.999 36.2969 25.5029 39.8125 33.1494 39.8125C36.7529 39.8125 40.0927 39.0215 42.9052 37.6152C44.8388 38.7578 47.4755 39.8125 50.7275 39.8125C50.9911 39.8125 51.2548 39.7246 51.3427 39.4609C51.4306 39.1973 51.4306 38.8457 51.1669 38.6699C51.1669 38.6699 49.2333 36.5605 48.0908 33.8359Z" fill="#757575"/>
</svg>
