<svg width="150" height="150" viewBox="0 0 150 150" fill="none" xmlns="http://www.w3.org/2000/svg">
<circle cx="75" cy="75" r="75" fill="#757575"/>
<path d="M94.5918 72.1367L65.373 54.373C62.7168 53.0449 59.5625 54.8711 59.5625 57.8594V92.3906C59.5625 95.5449 62.7168 97.3711 65.373 95.877L94.5918 79.1094C97.4141 77.6152 97.4141 73.7969 94.5918 72.1367ZM116.672 75.125C116.672 52.3809 98.2441 33.9531 75.5 33.9531C52.7559 33.9531 34.3281 52.3809 34.3281 75.125C34.3281 97.8691 52.7559 116.297 75.5 116.297C98.2441 116.297 116.672 97.8691 116.672 75.125ZM42.2969 75.125C42.2969 56.8633 57.0723 41.9219 75.5 41.9219C93.7617 41.9219 108.703 56.8633 108.703 75.125C108.703 93.5527 93.7617 108.328 75.5 108.328C57.0723 108.328 42.2969 93.5527 42.2969 75.125Z" fill="white"/>
</svg>
