<?xml version="1.0" encoding="UTF-8"?>
<svg version="1.1" viewBox="0 0 700 700"
    xmlns="http://www.w3.org/2000/svg">
    <g fill="#fff">
        <path d="m420 376.72v-306.62c0-38.727-31.414-70.105-70-70.105-38.656 0-70 31.273-70 70.105v306.62c-21.488 19.234-35 47.18-35 78.277 0 57.961 47.023 105 105 105 57.961 0 105-47.039 105-105 0-31.098-13.492-59.047-35-78.277zm-70 148.28c-38.656 0-70-31.344-70-70 0-25.898 14.086-48.527 35-60.637v-324.28c0-19.387 15.68-35.086 35-35.086 19.441 0 35 15.699 35 35.086v324.27c20.914 12.094 35 34.719 35 60.637 0 38.66-31.344 70.004-70 70.004z"/>
        <path d="m367.5 405.49v-265.61c0-9.6094-7.7539-17.379-17.5-17.379-9.6758 0-17.5 7.7891-17.5 17.379v265.61c-20.387 7.1914-35 26.637-35 49.508 0 28.996 23.504 52.5 52.5 52.5s52.5-23.504 52.5-52.5c0-22.871-14.613-42.316-35-49.508z"/>
    </g>
</svg>
