<svg width="150" height="204" viewBox="0 0 150 204" fill="none" xmlns="http://www.w3.org/2000/svg">
<path d="M18.4187 188.275V170.923H29.6267L29.6147 173.155H20.9987V178.423H28.6907V180.619H20.9867V186.007L29.8307 186.019V188.275H18.4187ZM32.6814 188.275V175.867H35.1894V177.655C35.3894 177.319 35.6574 177.003 35.9934 176.707C36.3374 176.411 36.7574 176.171 37.2534 175.987C37.7574 175.803 38.3374 175.711 38.9934 175.711C39.7694 175.711 40.4854 175.867 41.1414 176.179C41.8054 176.483 42.3374 176.963 42.7374 177.619C43.1374 178.267 43.3374 179.107 43.3374 180.139V188.275H40.7694V180.415C40.7694 179.527 40.5294 178.867 40.0494 178.435C39.5774 178.003 38.9654 177.787 38.2134 177.787C37.7094 177.787 37.2294 177.871 36.7734 178.039C36.3174 178.207 35.9494 178.463 35.6694 178.807C35.3894 179.143 35.2494 179.567 35.2494 180.079V188.275H32.6814ZM52.6916 177.715H49.9076L49.9196 185.119C49.9196 185.527 49.9596 185.827 50.0396 186.019C50.1276 186.203 50.2716 186.323 50.4716 186.379C50.6796 186.427 50.9596 186.451 51.3116 186.451H52.7636V188.119C52.6036 188.183 52.3636 188.239 52.0436 188.287C51.7316 188.335 51.3276 188.359 50.8316 188.359C49.9116 188.359 49.1956 188.235 48.6836 187.987C48.1796 187.739 47.8276 187.383 47.6276 186.919C47.4356 186.447 47.3396 185.879 47.3396 185.215V177.715H45.3236V175.867H47.4116L48.0476 172.219H49.9076V175.855H52.6916V177.715ZM55.7205 188.275V175.867H58.1805V178.411C58.3885 177.803 58.6765 177.295 59.0445 176.887C59.4205 176.471 59.8565 176.159 60.3525 175.951C60.8485 175.735 61.3725 175.627 61.9245 175.627C62.0925 175.627 62.2525 175.639 62.4045 175.663C62.5565 175.679 62.6765 175.711 62.7645 175.759V178.231C62.6605 178.183 62.5245 178.151 62.3565 178.135C62.1965 178.119 62.0565 178.107 61.9365 178.099C61.3925 178.059 60.8965 178.087 60.4485 178.183C60.0005 178.279 59.6125 178.439 59.2845 178.663C58.9645 178.887 58.7165 179.179 58.5405 179.539C58.3725 179.899 58.2885 180.323 58.2885 180.811V188.275H55.7205ZM66.8754 182.671C66.8754 183.415 66.9954 184.083 67.2354 184.675C67.4834 185.259 67.8554 185.723 68.3514 186.067C68.8474 186.403 69.4634 186.571 70.1994 186.571C70.9354 186.571 71.5714 186.403 72.1074 186.067C72.6514 185.731 73.0074 185.231 73.1754 184.567H75.5514C75.4074 185.415 75.0674 186.135 74.5314 186.727C74.0034 187.319 73.3634 187.767 72.6114 188.071C71.8594 188.367 71.0714 188.515 70.2474 188.515C69.0714 188.515 68.0354 188.263 67.1394 187.759C66.2434 187.247 65.5434 186.519 65.0394 185.575C64.5434 184.631 64.2954 183.507 64.2954 182.203C64.2954 180.915 64.5234 179.779 64.9794 178.795C65.4354 177.803 66.0954 177.027 66.9594 176.467C67.8234 175.907 68.8634 175.627 70.0794 175.627C71.2794 175.627 72.2874 175.883 73.1034 176.395C73.9274 176.907 74.5514 177.627 74.9754 178.555C75.3994 179.475 75.6114 180.563 75.6114 181.819V182.671H66.8754ZM66.8754 181.003H73.1634C73.1634 180.355 73.0514 179.767 72.8274 179.239C72.6034 178.703 72.2594 178.283 71.7954 177.979C71.3394 177.667 70.7634 177.511 70.0674 177.511C69.3554 177.511 68.7634 177.683 68.2914 178.027C67.8194 178.371 67.4634 178.811 67.2234 179.347C66.9914 179.883 66.8754 180.435 66.8754 181.003ZM78.4783 192.139V175.867H81.0463L81.0703 177.931C81.2223 177.659 81.4183 177.391 81.6583 177.127C81.8983 176.855 82.1823 176.607 82.5103 176.383C82.8463 176.151 83.2263 175.967 83.6503 175.831C84.0823 175.695 84.5583 175.627 85.0783 175.627C86.0543 175.627 86.9143 175.855 87.6583 176.311C88.4103 176.759 88.9943 177.451 89.4103 178.387C89.8343 179.315 90.0463 180.495 90.0463 181.927C90.0463 183.367 89.8343 184.575 89.4103 185.551C88.9943 186.527 88.3983 187.267 87.6223 187.771C86.8463 188.267 85.9263 188.515 84.8623 188.515C84.3503 188.515 83.8903 188.443 83.4823 188.299C83.0743 188.155 82.7143 187.967 82.4023 187.735C82.0903 187.495 81.8223 187.239 81.5983 186.967C81.3823 186.687 81.2023 186.411 81.0583 186.139V192.139H78.4783ZM84.3223 186.559C85.2743 186.559 86.0543 186.191 86.6623 185.455C87.2783 184.711 87.5863 183.551 87.5863 181.975C87.5863 180.623 87.3023 179.555 86.7343 178.771C86.1743 177.979 85.3703 177.583 84.3223 177.583C83.2423 177.583 82.4263 177.995 81.8743 178.819C81.3223 179.635 81.0463 180.687 81.0463 181.975C81.0463 182.815 81.1663 183.583 81.4063 184.279C81.6543 184.967 82.0223 185.519 82.5103 185.935C82.9983 186.351 83.6023 186.559 84.3223 186.559ZM92.7986 188.275V175.867H95.2586V178.411C95.4666 177.803 95.7546 177.295 96.1226 176.887C96.4986 176.471 96.9346 176.159 97.4306 175.951C97.9266 175.735 98.4506 175.627 99.0026 175.627C99.1706 175.627 99.3306 175.639 99.4826 175.663C99.6346 175.679 99.7546 175.711 99.8426 175.759V178.231C99.7386 178.183 99.6026 178.151 99.4346 178.135C99.2746 178.119 99.1346 178.107 99.0146 178.099C98.4706 178.059 97.9746 178.087 97.5266 178.183C97.0786 178.279 96.6906 178.439 96.3626 178.663C96.0426 178.887 95.7946 179.179 95.6186 179.539C95.4506 179.899 95.3666 180.323 95.3666 180.811V188.275H92.7986ZM104.932 175.867V188.275H102.46V175.867H104.932ZM104.98 170.935V173.467H102.4V170.935H104.98ZM113.167 188.515C112.303 188.515 111.491 188.379 110.731 188.107C109.979 187.835 109.347 187.407 108.835 186.823C108.331 186.239 108.015 185.491 107.887 184.579H110.179C110.283 185.051 110.479 185.443 110.767 185.755C111.063 186.059 111.415 186.287 111.823 186.439C112.239 186.583 112.683 186.655 113.155 186.655C113.939 186.655 114.571 186.515 115.051 186.235C115.539 185.947 115.783 185.507 115.783 184.915C115.783 184.491 115.651 184.151 115.387 183.895C115.131 183.639 114.723 183.451 114.163 183.331L111.691 182.743C110.667 182.503 109.847 182.123 109.231 181.603C108.615 181.075 108.303 180.339 108.295 179.395C108.295 178.667 108.475 178.019 108.835 177.451C109.203 176.883 109.747 176.439 110.467 176.119C111.187 175.791 112.083 175.627 113.155 175.627C114.555 175.627 115.679 175.939 116.527 176.563C117.375 177.187 117.815 178.091 117.847 179.275H115.627C115.547 178.707 115.287 178.263 114.847 177.943C114.415 177.615 113.843 177.451 113.131 177.451C112.395 177.451 111.791 177.599 111.319 177.895C110.847 178.183 110.611 178.627 110.611 179.227C110.611 179.635 110.783 179.959 111.127 180.199C111.471 180.431 111.987 180.623 112.675 180.775L115.027 181.363C115.635 181.523 116.135 181.735 116.527 181.999C116.919 182.255 117.227 182.539 117.451 182.851C117.675 183.163 117.831 183.487 117.919 183.823C118.015 184.159 118.063 184.475 118.063 184.771C118.063 185.555 117.863 186.227 117.463 186.787C117.071 187.339 116.507 187.767 115.771 188.071C115.043 188.367 114.175 188.515 113.167 188.515ZM122.914 182.671C122.914 183.415 123.034 184.083 123.274 184.675C123.522 185.259 123.894 185.723 124.39 186.067C124.886 186.403 125.502 186.571 126.238 186.571C126.974 186.571 127.61 186.403 128.146 186.067C128.69 185.731 129.046 185.231 129.214 184.567H131.59C131.446 185.415 131.106 186.135 130.57 186.727C130.042 187.319 129.402 187.767 128.65 188.071C127.898 188.367 127.11 188.515 126.286 188.515C125.11 188.515 124.074 188.263 123.178 187.759C122.282 187.247 121.582 186.519 121.078 185.575C120.582 184.631 120.334 183.507 120.334 182.203C120.334 180.915 120.562 179.779 121.018 178.795C121.474 177.803 122.134 177.027 122.998 176.467C123.862 175.907 124.902 175.627 126.118 175.627C127.318 175.627 128.326 175.883 129.142 176.395C129.966 176.907 130.59 177.627 131.014 178.555C131.438 179.475 131.65 180.563 131.65 181.819V182.671H122.914ZM122.914 181.003H129.202C129.202 180.355 129.09 179.767 128.866 179.239C128.642 178.703 128.298 178.283 127.834 177.979C127.378 177.667 126.802 177.511 126.106 177.511C125.394 177.511 124.802 177.683 124.33 178.027C123.858 178.371 123.502 178.811 123.262 179.347C123.03 179.883 122.914 180.435 122.914 181.003Z" fill="#DC3838"/>
<path d="M76.8029 33.3203V0H0V150H150V33.3203H76.8029ZM30.7212 133.32H15.3606V116.641H30.7212V133.32ZM30.7212 100H15.3606V83.3203H30.7212V100ZM30.7212 66.6797H15.3606V50H30.7212V66.6797ZM30.7212 33.3203H15.3606V16.6406H30.7212V33.3203ZM61.4423 133.32H46.0817V116.641H61.4423V133.32ZM61.4423 100H46.0817V83.3203H61.4423V100V100ZM61.4423 66.6797H46.0817V50H61.4423V66.6797V66.6797ZM61.4423 33.3203H46.0817V16.6406H61.4423V33.3203ZM134.639 133.32H76.8029V116.641H92.1635V100H76.8029V83.3203H92.1635V66.6406H76.8029V50H134.639V133.32V133.32ZM121.082 66.6797H105.721V83.3594H121.082V66.6797V66.6797ZM121.082 100H105.721V116.68H121.082V100V100Z" fill="#DC3838"/>
</svg>
