<svg width="16" height="12" viewBox="0 0 16 12" fill="none" xmlns="http://www.w3.org/2000/svg">
<path d="M2.08834 7.06522H10.1722C10.2548 7.06888 10.3372 7.05578 10.4146 7.02671C10.4919 6.99763 10.5626 6.95319 10.6223 6.89606C10.682 6.83894 10.7295 6.77032 10.762 6.69433C10.7944 6.61834 10.8112 6.53657 10.8112 6.45393C10.8112 6.3713 10.7944 6.28952 10.762 6.21353C10.7295 6.13754 10.682 6.06892 10.6223 6.01179C10.5626 5.95467 10.4919 5.91023 10.4146 5.88116C10.3372 5.85209 10.2548 5.83898 10.1722 5.84264H2.08834L3.26662 4.66436C3.37727 4.54875 3.43822 4.39439 3.43641 4.23436C3.4346 4.07434 3.37017 3.92139 3.25694 3.80831C3.1437 3.69523 2.99066 3.63101 2.83064 3.62942C2.67061 3.62784 2.51634 3.689 2.40087 3.79981L0.183228 6.01747C0.123762 6.07601 0.0769 6.1461 0.0455228 6.22342C0.0150972 6.29833 -0.000361315 6.37848 2.02862e-05 6.45932C-0.000648677 6.54148 0.0152337 6.62292 0.0467202 6.69881C0.0769717 6.77345 0.122208 6.84111 0.179635 6.89758L2.40207 9.12002C2.4589 9.1769 2.52638 9.22201 2.60065 9.2528C2.67493 9.28359 2.75454 9.29943 2.83494 9.29943C2.91535 9.29943 2.99496 9.28359 3.06924 9.2528C3.14351 9.22201 3.21099 9.1769 3.26782 9.12002C3.38174 9.00499 3.44565 8.84963 3.44565 8.68774C3.44565 8.52584 3.38174 8.3705 3.26782 8.25547L2.08834 7.06522Z" fill="white"/>
<path d="M13.0532 0.978519H6.18234C5.64245 0.978519 5.12468 1.19299 4.74293 1.57475C4.36117 1.9565 4.1467 2.47427 4.1467 3.01416V4.82468C4.149 4.95231 4.19131 5.076 4.26767 5.1783C4.34403 5.28059 4.45058 5.35633 4.57229 5.39483C4.694 5.43333 4.82473 5.43264 4.94602 5.39286C5.06732 5.35308 5.17306 5.27623 5.24834 5.17313H5.36808V3.01775C5.36808 2.80169 5.45384 2.59445 5.60651 2.44156C5.75917 2.28867 5.96627 2.20262 6.18234 2.2023H13.058C13.2741 2.20262 13.4812 2.28867 13.6338 2.44156C13.7865 2.59445 13.8723 2.80169 13.8723 3.01775V9.89341C13.8723 10.1095 13.7865 10.3167 13.6338 10.4696C13.4812 10.6225 13.2741 10.7085 13.058 10.7089H6.18234C5.96627 10.7085 5.75917 10.6225 5.60651 10.4696C5.45384 10.3167 5.36808 10.1095 5.36808 9.89341V7.72965H5.24834C5.19167 7.65283 5.11768 7.59046 5.03237 7.5476C4.94707 7.50474 4.85286 7.4826 4.7574 7.48298C4.59521 7.4833 4.43976 7.54786 4.32508 7.66255C4.2104 7.77723 4.14582 7.93268 4.14551 8.09487V9.89102C4.14551 10.4309 4.35997 10.9487 4.74173 11.3304C5.12349 11.7122 5.64126 11.9267 6.18114 11.9267H13.0568C13.5967 11.9267 14.1145 11.7122 14.4962 11.3304C14.878 10.9487 15.0924 10.4309 15.0924 9.89102V3.01655C15.0928 2.74873 15.0402 2.48347 14.9378 2.23598C14.8355 1.9885 14.6852 1.76365 14.4958 1.57432C14.3064 1.38499 14.0814 1.23491 13.8339 1.13267C13.5863 1.03043 13.321 0.978046 13.0532 0.978519Z" fill="white"/>
</svg>
