<svg id="Calque_1" data-name="Calque 1" xmlns="http://www.w3.org/2000/svg" viewBox="0 0 2000 2000"><defs><style>.cls-1{fill:none;}.cls-2,.cls-3{fill:#dc3738;}.cls-3{font-size:250px;font-family:NimbusSansBeckerTLigExt, Nimbus Sans Becker TLigExt;}.cls-4{letter-spacing:-0.02em;}</style></defs><rect class="cls-1" width="2000" height="2000"/><path class="cls-2" d="M694,718.19c4.58-6.79,10.25-11.74,19.13-10.4,6.57,1,11.2,4.79,13.88,10.88,1.88,4.25,3.7,8.52,6.14,14.17,1.76-3.61,2.84-5.84,3.94-8.07,43.7-89,114-144.78,211.24-163.15,150.35-28.42,294.67,63.65,334.58,211,3,11.16-1.45,20.66-11.08,23.59-10,3-19.17-2.57-22.39-14-18.67-66.41-57-118.12-116-154-45.39-27.62-95.13-40.47-147.93-36.08-98.66,8.19-170.75,57.3-215.88,145.61-.73,1.41-1.35,2.87-2,4.34a25.06,25.06,0,0,0-.7,2.85c4-1.53,7.32-2.76,10.64-4.12,11-4.52,21.13-1.22,25.13,8.23,4.1,9.69-.39,19.23-11.32,23.87q-24.63,10.47-49.31,20.84c-11.62,4.85-20.71,1.25-25.7-10.31-6.61-15.28-13-30.66-19.55-46a46.8,46.8,0,0,0-2.87-5Z"/><path class="cls-2" d="M950.59,878.83h-7c-18.67,0-37.34,0-56,0-8,0-14.58-2.58-18-10.15s-1.62-14.12,3.56-20.38Q946.61,759.54,1020,670.67c6.35-7.67,13.13-9.83,20.94-7,7.47,2.71,11.59,9.3,11.59,18.9q0,76,0,151.92v7.94h6.72c18.67,0,37.34.05,56,0,8.2,0,15,2.52,18.45,10.42,3.28,7.48,1.31,14.14-3.84,20.36q-73.35,88.53-146.55,177.16c-6.58,8-13.44,10.15-21.42,7.14-7.35-2.78-11.31-9.36-11.31-19.1q0-76,0-151.92Zm130.12-1.2c-15.13,0-28.58,0-42,0-14.66,0-21.34-6.76-21.34-21.57q0-59.58,0-119.16c0-2-.17-4-.34-7.66L922.45,843.62h42.31c14.25,0,21,6.87,21,21.28q0,59.58,0,119.16v6.23l1.4.47Z"/><path class="cls-2" d="M1231.34,972.69c-5.65,2.35-9.79,4.13-14,5.79-10.2,4-20.17.47-24.11-8.6-4.11-9.45.19-19.28,10.58-23.72,16.76-7.16,33.55-14.29,50.4-21.27,11.24-4.66,20.37-.93,25.23,10.36q10.83,25.13,21.27,50.4c4.33,10.48.49,20.47-9,24.3-9.32,3.77-18.64-.54-23.15-10.72-1.51-3.4-3-6.79-4.94-11.21-1.31,2.49-2.14,3.93-2.84,5.42-43.15,91.06-113.76,149-212.73,167.14C889.45,1189.7,750.7,1091.07,712.8,949.1c-2.83-10.61,2-20.2,11.44-22.94,9.78-2.84,19.11,2.76,22.15,13.62,19.18,68.64,59.16,121.46,120.85,157.17,46.67,27,97.33,38.63,151,32.61,97.83-11,167.82-61.83,210.57-150.37C1229.57,977.62,1230.08,975.94,1231.34,972.69Z"/><text class="cls-3" transform="translate(388.4 1396.51)">Diag <tspan class="cls-4" x="604.74" y="0">A</tspan><tspan x="783.33" y="0">udit</tspan></text></svg>