<svg width="150" height="205" viewBox="0 0 150 205" fill="none" xmlns="http://www.w3.org/2000/svg">
<path d="M15.5467 171.2H17.8592V189.275H15.5467V171.2ZM22.1518 189.275V176.35H24.3893V178.225C24.5976 177.867 24.8851 177.529 25.2518 177.213C25.6268 176.896 26.0768 176.642 26.6018 176.45C27.1351 176.258 27.7476 176.163 28.4393 176.163C29.2559 176.163 30.0059 176.325 30.6893 176.65C31.3809 176.975 31.9309 177.483 32.3393 178.175C32.7559 178.858 32.9643 179.742 32.9643 180.825V189.275H30.6518V181.05C30.6518 180.042 30.3851 179.296 29.8518 178.813C29.3268 178.321 28.6434 178.075 27.8018 178.075C27.2184 178.075 26.6726 178.171 26.1643 178.363C25.6559 178.546 25.2434 178.829 24.9268 179.213C24.6101 179.588 24.4518 180.063 24.4518 180.638V189.275H22.1518ZM40.9727 189.525C40.0727 189.525 39.2352 189.388 38.4602 189.113C37.6935 188.829 37.056 188.392 36.5477 187.8C36.0393 187.2 35.7185 186.438 35.5852 185.513H37.6852C37.8018 186.021 38.0102 186.446 38.3102 186.788C38.6185 187.121 39.0018 187.375 39.4602 187.55C39.9185 187.717 40.4185 187.8 40.9602 187.8C41.8268 187.8 42.5268 187.638 43.0602 187.313C43.5935 186.988 43.8602 186.488 43.8602 185.813C43.8602 185.338 43.7185 184.958 43.4352 184.675C43.1602 184.383 42.731 184.171 42.1477 184.038L39.4727 183.375C38.431 183.125 37.5977 182.733 36.9727 182.2C36.3477 181.667 36.0352 180.921 36.0352 179.963C36.0268 179.204 36.206 178.538 36.5727 177.963C36.9393 177.388 37.4893 176.933 38.2227 176.6C38.956 176.267 39.8685 176.1 40.9602 176.1C42.3602 176.1 43.4893 176.417 44.3477 177.05C45.2143 177.675 45.6643 178.596 45.6977 179.813H43.6602C43.5768 179.196 43.2977 178.708 42.8227 178.35C42.356 177.983 41.7268 177.8 40.9352 177.8C40.1102 177.8 39.4393 177.967 38.9227 178.3C38.406 178.625 38.1477 179.133 38.1477 179.825C38.1477 180.283 38.331 180.646 38.6977 180.913C39.0643 181.171 39.606 181.388 40.3227 181.563L42.9102 182.213C43.5102 182.371 44.0018 182.579 44.3852 182.838C44.7768 183.096 45.0852 183.383 45.3102 183.7C45.5435 184.017 45.706 184.35 45.7977 184.7C45.8977 185.042 45.9477 185.371 45.9477 185.688C45.9477 186.479 45.7477 187.163 45.3477 187.738C44.956 188.304 44.3893 188.746 43.6477 189.063C42.9143 189.371 42.0227 189.525 40.9727 189.525ZM49.1781 193.3V176.35H51.4781L51.5031 178.6C51.6531 178.333 51.8448 178.054 52.0781 177.763C52.3198 177.471 52.6115 177.2 52.9531 176.95C53.3031 176.7 53.7073 176.496 54.1656 176.338C54.6323 176.179 55.1615 176.1 55.7531 176.1C56.7865 176.1 57.6948 176.338 58.4781 176.813C59.2698 177.279 59.8865 177.996 60.3281 178.963C60.7698 179.929 60.9906 181.154 60.9906 182.638C60.9906 184.121 60.774 185.375 60.3406 186.4C59.9156 187.417 59.299 188.192 58.4906 188.725C57.6823 189.258 56.7073 189.525 55.5656 189.525C54.9906 189.525 54.4781 189.442 54.0281 189.275C53.5865 189.117 53.199 188.908 52.8656 188.65C52.5406 188.383 52.2656 188.1 52.0406 187.8C51.824 187.5 51.6448 187.213 51.5031 186.938V193.3H49.1781ZM55.1281 187.725C56.1948 187.725 57.0656 187.321 57.7406 186.513C58.4156 185.696 58.7531 184.429 58.7531 182.713C58.7531 181.238 58.4448 180.067 57.8281 179.2C57.2115 178.333 56.3115 177.9 55.1281 177.9C53.9281 177.9 53.0198 178.346 52.4031 179.238C51.7865 180.121 51.4781 181.279 51.4781 182.713C51.4781 183.638 51.6156 184.479 51.8906 185.238C52.1656 185.996 52.574 186.6 53.1156 187.05C53.6573 187.5 54.3281 187.725 55.1281 187.725ZM65.6719 183.35C65.6719 184.167 65.8052 184.908 66.0719 185.575C66.3469 186.233 66.7594 186.758 67.3094 187.15C67.8677 187.542 68.5635 187.738 69.3969 187.738C70.2219 187.738 70.9302 187.546 71.5219 187.163C72.1219 186.779 72.5052 186.225 72.6719 185.5H74.8594C74.701 186.375 74.351 187.113 73.8094 187.713C73.2677 188.313 72.6135 188.767 71.8469 189.075C71.0802 189.375 70.2802 189.525 69.4469 189.525C68.2385 189.525 67.176 189.263 66.2594 188.738C65.3427 188.213 64.626 187.458 64.1094 186.475C63.5927 185.492 63.3344 184.313 63.3344 182.938C63.3344 181.579 63.5677 180.388 64.0344 179.363C64.501 178.338 65.176 177.538 66.0594 176.963C66.951 176.388 68.0219 176.1 69.2719 176.1C70.4885 176.1 71.5177 176.363 72.3594 176.888C73.201 177.413 73.8385 178.154 74.2719 179.113C74.7135 180.063 74.9344 181.192 74.9344 182.5V183.35H65.6719ZM65.6844 181.788H72.7094C72.7094 181.046 72.5844 180.379 72.3344 179.788C72.0844 179.188 71.701 178.717 71.1844 178.375C70.676 178.025 70.0344 177.85 69.2594 177.85C68.451 177.85 67.7802 178.046 67.2469 178.438C66.7219 178.821 66.326 179.317 66.0594 179.925C65.801 180.525 65.676 181.146 65.6844 181.788ZM83.2588 176.1C84.1838 176.1 85.0171 176.279 85.7588 176.638C86.5005 176.988 87.1046 177.488 87.5713 178.138C88.0463 178.788 88.3421 179.554 88.4588 180.438H86.4088C86.3338 179.988 86.1588 179.575 85.8838 179.2C85.6171 178.825 85.263 178.525 84.8213 178.3C84.3796 178.075 83.863 177.963 83.2713 177.963C82.163 177.963 81.263 178.363 80.5713 179.163C79.8796 179.963 79.5338 181.188 79.5338 182.838C79.5338 184.329 79.8505 185.525 80.4838 186.425C81.1255 187.317 82.0671 187.763 83.3088 187.763C83.9005 187.763 84.413 187.65 84.8463 187.425C85.288 187.192 85.6421 186.888 85.9088 186.513C86.1755 186.129 86.3463 185.721 86.4213 185.288H88.4338C88.3255 186.154 88.0338 186.904 87.5588 187.538C87.0838 188.171 86.4755 188.663 85.7338 189.013C85.0005 189.354 84.1755 189.525 83.2588 189.525C82.1005 189.525 81.0713 189.271 80.1713 188.763C79.2796 188.254 78.5796 187.504 78.0713 186.513C77.563 185.521 77.3088 184.304 77.3088 182.863C77.3088 181.513 77.538 180.333 77.9963 179.325C78.463 178.308 79.138 177.517 80.0213 176.95C80.913 176.383 81.9921 176.1 83.2588 176.1ZM97.7369 178.038H94.8244V186.075C94.8244 186.533 94.8702 186.871 94.9619 187.088C95.0619 187.296 95.2244 187.429 95.4494 187.488C95.6827 187.546 95.9994 187.575 96.3994 187.575H97.8119V189.125C97.6536 189.183 97.4119 189.233 97.0869 189.275C96.7702 189.317 96.3744 189.338 95.8994 189.338C95.0077 189.338 94.3161 189.217 93.8244 188.975C93.3327 188.733 92.9869 188.375 92.7869 187.9C92.5952 187.425 92.4994 186.842 92.4994 186.15V178.038H90.3994V176.35H92.5619L93.1244 172.588H94.8244V176.338H97.7369V178.038ZM102.366 183.35C102.366 184.167 102.5 184.908 102.766 185.575C103.041 186.233 103.454 186.758 104.004 187.15C104.562 187.542 105.258 187.738 106.091 187.738C106.916 187.738 107.625 187.546 108.216 187.163C108.816 186.779 109.2 186.225 109.366 185.5H111.554C111.395 186.375 111.045 187.113 110.504 187.713C109.962 188.313 109.308 188.767 108.541 189.075C107.775 189.375 106.975 189.525 106.141 189.525C104.933 189.525 103.87 189.263 102.954 188.738C102.037 188.213 101.32 187.458 100.804 186.475C100.287 185.492 100.029 184.313 100.029 182.938C100.029 181.579 100.262 180.388 100.729 179.363C101.195 178.338 101.87 177.538 102.754 176.963C103.645 176.388 104.716 176.1 105.966 176.1C107.183 176.1 108.212 176.363 109.054 176.888C109.895 177.413 110.533 178.154 110.966 179.113C111.408 180.063 111.629 181.192 111.629 182.5V183.35H102.366ZM102.379 181.788H109.404C109.404 181.046 109.279 180.379 109.029 179.788C108.779 179.188 108.395 178.717 107.879 178.375C107.37 178.025 106.729 177.85 105.954 177.85C105.145 177.85 104.475 178.046 103.941 178.438C103.416 178.821 103.02 179.317 102.754 179.925C102.495 180.525 102.37 181.146 102.379 181.788ZM119.358 189.525C118.683 189.517 118.045 189.421 117.445 189.238C116.854 189.046 116.329 188.767 115.87 188.4C115.412 188.033 115.049 187.579 114.783 187.038C114.524 186.488 114.395 185.85 114.395 185.125V176.35H116.708V184.888C116.708 185.729 116.966 186.413 117.483 186.938C118.008 187.463 118.795 187.725 119.845 187.725C120.795 187.725 121.558 187.479 122.133 186.988C122.716 186.488 123.008 185.746 123.008 184.763V176.35H125.308V189.275H123.47L123.233 186.8C123.074 187.45 122.804 187.975 122.42 188.375C122.045 188.775 121.591 189.071 121.058 189.263C120.533 189.446 119.966 189.533 119.358 189.525ZM129.061 189.275V176.35H131.261V178.838C131.478 178.221 131.782 177.713 132.173 177.313C132.565 176.904 133.011 176.6 133.511 176.4C134.019 176.2 134.544 176.1 135.086 176.1C135.278 176.1 135.465 176.113 135.648 176.138C135.832 176.163 135.973 176.204 136.073 176.263V178.5C135.948 178.442 135.786 178.404 135.586 178.388C135.394 178.363 135.232 178.35 135.098 178.35C134.582 178.317 134.098 178.35 133.648 178.45C133.198 178.542 132.803 178.704 132.461 178.938C132.119 179.171 131.848 179.479 131.648 179.863C131.457 180.238 131.361 180.696 131.361 181.238V189.275H129.061Z" fill="#DC3838"/>
<path d="M109.408 93.837H106.814C111.125 89.5955 114.547 84.5383 116.881 78.9605C119.215 73.3828 120.414 67.3961 120.409 61.35V57.3029C121.03 56.7384 121.475 56.008 121.693 55.1981C124.502 46.0105 124.488 36.1916 121.652 27.0124C119.07 19.5604 114.176 13.1264 107.684 8.64638C99.5834 3.17938 90.0629 0.194655 80.2901 0.0583385C71.1405 -0.414835 62.0738 1.99973 54.3724 6.96045C53.0905 7.84101 51.9946 8.96546 51.1476 10.2695C50.3005 11.5736 49.7188 13.0318 49.4357 14.5607C43.3289 16.0626 38.0232 19.8321 34.5965 25.1035C27.5083 35.7317 28.1191 50.7488 29.5931 57.0007V61.3521C29.5876 67.3977 30.7868 73.3839 33.1205 78.9613C35.4543 84.5387 38.8758 89.5956 43.1856 93.837H40.6006C29.8465 93.8375 19.5319 98.1028 11.9202 105.697C4.30852 113.291 0.0215346 123.593 0 134.343V145.597C0 146.762 0.463007 147.879 1.28717 148.703C2.11132 149.527 3.22912 149.99 4.39466 149.99C5.56019 149.99 6.67799 149.527 7.50215 148.703C8.32631 147.879 8.78932 146.762 8.78932 145.597V134.343C8.80809 125.922 12.1682 117.853 18.1321 111.906C24.0961 105.959 32.1767 102.621 40.6006 102.623H48.7811C49.4494 109.111 52.5008 115.122 57.3453 119.491C62.1898 123.861 68.4832 126.28 75.0083 126.28C81.5335 126.28 87.8269 123.861 92.6714 119.491C97.5159 115.122 100.567 109.111 101.236 102.623H109.416C117.837 102.625 125.913 105.966 131.874 111.912C137.834 117.859 141.192 125.925 141.211 134.343V145.597C141.211 146.173 141.324 146.745 141.545 147.278C141.766 147.811 142.09 148.295 142.498 148.703C142.906 149.111 143.39 149.434 143.924 149.655C144.457 149.876 145.028 149.99 145.605 149.99C146.182 149.99 146.754 149.876 147.287 149.655C147.82 149.434 148.305 149.111 148.713 148.703C149.121 148.295 149.445 147.811 149.665 147.278C149.886 146.745 150 146.173 150 145.597V134.343C149.978 123.595 145.693 113.293 138.083 105.7C130.473 98.1059 120.16 93.8397 109.408 93.837V93.837ZM41.9119 29.9696C43.2753 27.8922 45.0887 26.1481 47.2179 24.8664C49.3471 23.5847 51.7374 22.7982 54.2119 22.5652C55.266 22.423 56.2328 21.9034 56.9328 21.1028C57.6328 20.3023 58.0186 19.2751 58.0187 18.2118V16.8114C58.0006 16.2889 58.1182 15.7708 58.3601 15.3073C58.602 14.8438 58.9598 14.4509 59.3988 14.1668C65.1887 10.4864 71.9493 8.6252 78.8078 8.82352C87.2697 8.7279 95.5658 11.1714 102.624 15.8382C110.129 21.1002 117.943 31.2595 113.909 50.0153C92.9862 51.8908 77.7467 47.0977 67.3834 35.4087C66.8998 34.8635 66.2882 34.4471 65.6036 34.197C64.919 33.9469 64.183 33.871 63.4617 33.976C62.7404 34.081 62.0566 34.3637 61.4718 34.7986C60.887 35.2335 60.4196 35.807 60.1117 36.4674C55.5816 46.187 48.581 51.0552 37.6777 51.9096C37.1357 46.3579 37.4567 36.6612 41.9119 29.9696ZM38.3782 61.35V60.656C50.303 59.6995 59.1173 54.723 65.111 45.5451C71.0989 50.8282 78.2285 54.6548 85.9418 56.7256C94.3188 58.8884 102.996 59.6531 111.622 58.9888V61.3521C111.622 71.0608 107.764 80.372 100.896 87.2371C94.0281 94.1023 84.7135 97.9591 75.001 97.9591C65.2886 97.9591 55.974 94.1023 49.1063 87.2371C42.2385 80.372 38.3803 71.0608 38.3803 61.3521L38.3782 61.35ZM74.999 117.492C70.9653 117.487 67.0559 116.097 63.9244 113.555C60.793 111.014 58.6294 107.475 57.7956 103.53C68.8137 108.061 81.1759 108.061 92.194 103.53C91.3523 107.469 89.1877 111.002 86.0598 113.542C82.9318 116.082 79.0288 117.476 74.999 117.492Z" fill="#DC3838"/>
<path d="M119.248 124.521C118.082 124.521 116.965 124.984 116.14 125.808C115.316 126.632 114.853 127.749 114.853 128.914V145.607C114.853 146.772 115.316 147.889 116.14 148.713C116.965 149.537 118.082 150 119.248 150C120.413 150 121.531 149.537 122.355 148.713C123.18 147.889 123.643 146.772 123.643 145.607V128.914C123.643 127.749 123.18 126.632 122.355 125.808C121.531 124.984 120.413 124.521 119.248 124.521Z" fill="#DC3838"/>
<path d="M30.7709 124.521C29.6053 124.521 28.4875 124.984 27.6634 125.808C26.8392 126.632 26.3762 127.749 26.3762 128.914V145.607C26.3762 146.772 26.8392 147.889 27.6634 148.713C28.4875 149.537 29.6053 150 30.7709 150C31.9364 150 33.0542 149.537 33.8784 148.713C34.7025 147.889 35.1655 146.772 35.1655 145.607V128.914C35.1655 127.749 34.7025 126.632 33.8784 125.808C33.0542 124.984 31.9364 124.521 30.7709 124.521V124.521Z" fill="#DC3838"/>
</svg>
