<svg width="24" height="15" viewBox="0 0 24 15" fill="none" xmlns="http://www.w3.org/2000/svg">
<path d="M12 8.4375C13.63 8.4375 15.07 8.925 16.24 9.5625C17.32 10.1625 18 11.5125 18 12.975V15H6V12.9875C6 11.5125 6.68 10.1625 7.76 9.575C8.93 8.925 10.37 8.4375 12 8.4375ZM4 8.75C5.1 8.75 6 7.625 6 6.25C6 4.875 5.1 3.75 4 3.75C2.9 3.75 2 4.875 2 6.25C2 7.625 2.9 8.75 4 8.75ZM5.13 10.125C4.76 10.05 4.39 10 4 10C3.01 10 2.07 10.2625 1.22 10.725C0.48 11.125 0 12.025 0 13.0375V15H4.5V12.9875C4.5 11.95 4.73 10.975 5.13 10.125ZM20 8.75C21.1 8.75 22 7.625 22 6.25C22 4.875 21.1 3.75 20 3.75C18.9 3.75 18 4.875 18 6.25C18 7.625 18.9 8.75 20 8.75ZM24 13.0375C24 12.025 23.52 11.125 22.78 10.725C21.93 10.2625 20.99 10 20 10C19.61 10 19.24 10.05 18.87 10.125C19.27 10.975 19.5 11.95 19.5 12.9875V15H24V13.0375ZM12 0C13.66 0 15 1.675 15 3.75C15 5.825 13.66 7.5 12 7.5C10.34 7.5 9 5.825 9 3.75C9 1.675 10.34 0 12 0Z" fill="white"/>
</svg>
