<svg width="85" height="39" viewBox="0 0 85 39" fill="none" xmlns="http://www.w3.org/2000/svg">
<g clip-path="url(#clip0_461_2207)">
<path d="M46.7145 37.9224C56.8889 37.9224 65.1369 29.6744 65.1369 19.5C65.1369 9.32561 56.8889 1.07764 46.7145 1.07764C36.5401 1.07764 28.2921 9.32561 28.2921 19.5C28.2921 29.6744 36.5401 37.9224 46.7145 37.9224Z" stroke="#4D5D12" stroke-width="1.31579" stroke-miterlimit="10"/>
<path d="M46.7144 35.3855C55.4878 35.3855 62.6 28.2733 62.6 19.5C62.6 10.7267 55.4878 3.61447 46.7144 3.61447C37.9411 3.61447 30.8289 10.7267 30.8289 19.5C30.8289 28.2733 37.9411 35.3855 46.7144 35.3855Z" fill="#46CC73"/>
<path d="M47.0921 28.2421C47.0342 28.129 46.8461 28.0948 46.7829 28.204C46.7264 28.3868 46.651 28.5632 46.5579 28.7303C46.4145 28.9869 46.3119 29.0711 46.3105 29.2434C46.3105 29.479 46.4987 29.7026 46.5829 29.6803C46.6961 29.65 46.525 29.2105 46.7908 28.8908C46.8796 28.8002 46.9618 28.7035 47.0369 28.6013C47.0773 28.5518 47.1038 28.4924 47.1135 28.4293C47.1232 28.3661 47.1158 28.3015 47.0921 28.2421Z" fill="#10B506"/>
<path d="M47.4355 26.5763C47.3855 26.6263 47.3632 26.6263 47.3474 26.6553C47.3381 26.6736 47.3333 26.6939 47.3333 26.7145C47.3333 26.7351 47.3381 26.7553 47.3474 26.7737H47.5763C47.6215 26.7029 47.6418 26.6191 47.6342 26.5355C47.6122 26.5228 47.5875 26.5155 47.5621 26.5142C47.5368 26.5128 47.5114 26.5174 47.4882 26.5276C47.4684 26.5342 47.4698 26.5421 47.4355 26.5763Z" fill="#10B506"/>
<path d="M47.3079 27.0895C47.2881 27.1 47.2526 27.1184 47.2118 27.3263C47.1921 27.4237 47.1737 27.5211 47.1539 27.6184C47.1342 27.7158 47.121 27.8421 47.2 27.9079C47.2405 27.9361 47.2902 27.9478 47.3391 27.9407C47.3879 27.9337 47.4323 27.9083 47.4631 27.8697C47.5267 27.7964 47.5634 27.7036 47.5671 27.6066C47.6053 27.3818 47.6115 27.1528 47.5855 26.9263C47.5789 26.9263 47.6013 27.0369 47.5421 27.0816C47.4829 27.1263 47.3881 27.0461 47.3079 27.0895Z" fill="#10B506"/>
<path d="M47.6461 28.7553C47.671 28.7725 47.6996 28.7834 47.7297 28.787C47.7597 28.7907 47.7902 28.787 47.8184 28.7763C47.8684 28.7592 47.9395 28.7119 47.9395 28.6553C47.9395 28.5776 47.8079 28.5671 47.7355 28.4211C47.7263 28.4026 47.7171 28.3803 47.704 28.3816C47.6698 28.3816 47.6513 28.5382 47.6487 28.5645C47.6414 28.6278 47.6405 28.6918 47.6461 28.7553Z" fill="#10B506"/>
<path d="M35.8487 31.0868C35.8779 31.0778 35.9065 31.0668 35.9342 31.0539C35.9954 30.9316 36.0085 30.7908 35.971 30.6592C35.9263 30.5276 35.8026 30.3658 35.7079 30.3855C35.6844 30.3927 35.664 30.4075 35.65 30.4276C35.5829 30.5039 35.6355 30.5829 35.5842 30.6697C35.5539 30.7224 35.5224 30.7263 35.4908 30.7487C35.6101 30.8627 35.7294 30.9754 35.8487 31.0868Z" fill="#10B506"/>
<path d="M46.0605 28.3947C46.0444 28.3821 46.0253 28.3738 46.005 28.3706C45.9848 28.3674 45.964 28.3693 45.9448 28.3763C45.9263 28.3869 45.9119 28.4105 45.9013 28.5434C45.8947 28.6145 45.8934 28.675 45.8934 28.7158H46.1276C46.1488 28.6615 46.1538 28.6023 46.1419 28.5453C46.1299 28.4883 46.1017 28.436 46.0605 28.3947Z" fill="#10B506"/>
<path d="M35.45 28.5263C35.4472 28.5942 35.4297 28.6606 35.3987 28.721C35.3289 28.8395 35.2355 28.8421 35.2 28.9395C35.1644 29.0368 35.2 29.15 35.2618 29.1763C35.3697 29.2197 35.6197 28.9921 35.6802 28.7224C35.6925 28.6498 35.6965 28.5761 35.6921 28.5026C35.7265 28.2932 35.7963 28.0912 35.8987 27.9053C35.9802 27.7105 36.0302 27.4776 35.9302 27.2921C35.8368 27.2053 35.7092 27.3553 35.6737 27.4776C35.5747 27.8215 35.5 28.1719 35.45 28.5263Z" fill="#10B506"/>
<path d="M36.304 30.0447C36.3611 30.0458 36.4168 30.0273 36.462 29.9924C36.5072 29.9574 36.5392 29.9082 36.5526 29.8526C36.576 29.7409 36.5645 29.6247 36.5197 29.5197C36.4579 29.3461 36.2895 29.1566 36.125 29.2369C36.0894 29.3337 36.0894 29.44 36.125 29.5369C36.1855 29.6803 36.3158 29.7066 36.3066 29.775C36.2908 29.879 35.9619 29.9592 35.8908 29.8632C35.8395 29.7947 35.9592 29.6895 35.9197 29.5408C35.9021 29.4915 35.8745 29.4464 35.8388 29.4081C35.803 29.3699 35.7598 29.3394 35.7119 29.3184C35.7119 29.55 35.7119 29.7803 35.7119 30.0105C35.7545 30.0308 35.8029 30.0354 35.8485 30.0236C35.8942 30.0119 35.9343 29.9844 35.9619 29.9461C35.9382 30.0158 36.1987 30.0329 36.304 30.0447Z" fill="#10B506"/>
<path d="M54.0698 8.01316C54.1211 8.24342 54.3132 8.33816 54.5119 8.45132C54.7106 8.56448 54.9066 8.75395 54.8369 8.96184C55.4342 8.78553 56.0329 9.53553 56.6211 9.32763C56.2184 8.83684 55.6461 8.52237 55.0895 8.21842C54.804 8.06316 54.3671 7.81711 54.0698 8.01316Z" fill="#10B506"/>
<path d="M37.4908 18.3921C37.5082 18.6556 37.477 18.9201 37.3987 19.1724L37.5 19.1882C37.6921 19.2197 37.7039 19.2224 37.725 19.2171C37.7724 19.1953 37.8131 19.1612 37.8429 19.1184C37.8727 19.0756 37.8906 19.0257 37.8947 18.9737C37.9105 18.8421 37.8276 18.8132 37.8434 18.6829C37.8592 18.5526 37.95 18.5513 37.9618 18.4263C37.9737 18.3013 37.8921 18.2947 37.8303 18.0908C37.7737 17.9118 37.8079 17.8355 37.7368 17.7842C37.7019 17.7605 37.6607 17.7477 37.6184 17.7477C37.5762 17.7477 37.5349 17.7605 37.5 17.7842C37.3882 17.8763 37.4697 18.0987 37.4908 18.3921Z" fill="#10B506"/>
<path d="M35.8039 19.1053C35.7829 19.1921 35.7618 19.2789 35.7421 19.3684C35.6462 19.4018 35.5445 19.415 35.4433 19.4073C35.3422 19.3996 35.2436 19.3712 35.1539 19.3237C34.9999 19.2213 34.8868 19.0681 34.8342 18.8908C34.7753 18.7459 34.7463 18.5906 34.7487 18.4342C34.6671 18.4633 34.592 18.508 34.5276 18.5658C34.4623 18.6233 34.4094 18.6936 34.3724 18.7724C34.4737 19.0619 34.5 19.3725 34.4487 19.675C34.3031 19.6778 34.164 19.7357 34.0595 19.8371C33.955 19.9384 33.8928 20.0756 33.8855 20.221C33.8855 20.5289 34.1237 20.775 34.2671 21.0474C34.4105 21.3197 34.3881 21.7566 34.0868 21.8224C33.95 21.3838 33.8127 20.9452 33.675 20.5066C33.5683 21.3362 33.6631 22.1793 33.9513 22.9645L33.9645 22.8671C33.9843 22.913 34.0129 22.9546 34.0487 22.9895C34.1513 23.0868 34.2895 23.1539 34.3487 23.2816C34.446 23.4934 34.275 23.7474 34.3408 23.971C34.4145 24.2184 34.7355 24.3092 34.846 24.5434C34.9302 24.7263 34.8618 24.9381 34.8947 25.1395C34.9276 25.3408 35.196 25.5171 35.3145 25.3539C35.2942 25.5167 35.3094 25.6819 35.3592 25.8382C35.4089 25.9945 35.492 26.1381 35.6026 26.2592L35.7447 24.5921C35.8453 24.5834 35.9431 24.5544 36.0321 24.5067C36.1211 24.4591 36.1995 24.3938 36.2625 24.3149C36.3255 24.236 36.3718 24.1451 36.3986 24.0478C36.4254 23.9505 36.4322 23.8487 36.4184 23.7487L36.8618 23.7368C36.8881 23.7999 36.9 23.868 36.8968 23.9363C36.8936 24.0045 36.8754 24.0712 36.8434 24.1316C37.0896 24.2178 37.3565 24.2262 37.6076 24.1556C37.8588 24.085 38.0821 23.9388 38.2474 23.7368C38.3346 23.6035 38.43 23.4756 38.5329 23.3539C38.6203 23.2895 38.6923 23.2064 38.7434 23.1105C38.8302 22.8658 38.5197 22.6724 38.2645 22.6289C38.0092 22.5855 37.6881 22.5355 37.6171 22.2855C37.5763 22.1434 37.6421 21.9895 37.6092 21.8447C37.5605 21.6316 37.3224 21.5224 37.2 21.3395C36.9224 20.9237 37.2947 20.2381 36.9145 19.9158C36.8763 20.1039 36.8395 20.2921 36.8013 20.4803C36.6548 20.5157 36.5002 20.4921 36.371 20.4145C36.4591 20.3083 36.5219 20.1834 36.5545 20.0493C36.5871 19.9153 36.5887 19.7756 36.5592 19.6408H36.1934C36.2031 19.58 36.2008 19.5179 36.1865 19.4581C36.1722 19.3983 36.1461 19.3418 36.11 19.2921C36.0738 19.2423 36.0281 19.2002 35.9756 19.1681C35.9231 19.1361 35.8647 19.1147 35.8039 19.1053Z" fill="#10B506"/>
<path d="M40.3171 16.646C40.4158 16.5513 40.2803 16.296 40.2526 16.2513C40.2258 16.1815 40.1847 16.118 40.1319 16.065C40.0791 16.0119 40.0158 15.9705 39.9461 15.9434C39.7671 15.8934 39.5053 15.9618 39.4632 16.1368C39.425 16.2908 39.5789 16.4368 39.5947 16.4474C39.6145 16.5789 39.6553 16.6171 39.6882 16.6289C39.746 16.6513 39.7947 16.5934 39.8895 16.5908C39.9619 16.5911 40.0319 16.6173 40.0868 16.6645C40.1224 16.6697 40.2526 16.7079 40.3171 16.646Z" fill="#10B506"/>
<path d="M36.5474 8.12369C36.5456 8.14338 36.5456 8.1632 36.5474 8.1829C36.5487 8.16318 36.5487 8.1434 36.5474 8.12369Z" fill="#10B506"/>
<path d="M35.6657 9.06184C35.9179 8.97217 36.1622 8.8617 36.396 8.73157C36.4907 8.67762 36.6592 8.57894 36.6473 8.46841C36.6473 8.43289 36.625 8.41578 36.5986 8.35394C36.5745 8.29919 36.559 8.24105 36.5526 8.18157C36.5533 8.25563 36.5321 8.32824 36.4917 8.39031C36.4513 8.45238 36.3935 8.50116 36.3255 8.53052C36.2575 8.55988 36.1823 8.56852 36.1095 8.55537C36.0366 8.54221 35.9692 8.50785 35.9157 8.45657C35.8888 8.43197 35.868 8.4013 35.8552 8.3671C35.8393 8.29222 35.8481 8.2142 35.8802 8.14473C35.9164 8.05276 35.9264 7.95257 35.9092 7.85526C35.7618 7.98683 35.6157 8.13289 35.4736 8.27499C35.4588 8.55046 35.5257 8.82418 35.6657 9.06184Z" fill="#10B506"/>
<path d="M40.3592 15.5895C40.4395 15.5276 40.5671 15.5895 40.6026 15.5197C40.625 15.4789 40.5947 15.4145 40.5711 15.3882C40.5474 15.3618 40.4908 15.3395 40.4539 15.3105C40.3434 15.2197 40.4987 14.975 40.4079 14.8474C40.3171 14.7197 40.0566 14.7237 39.8816 14.8289C39.75 14.9039 39.6908 15.0329 39.4342 15.2934C39.4051 15.326 39.3664 15.3485 39.3237 15.3579C39.2053 15.3776 39.0961 15.2566 39.0605 15.2132C39.0343 15.209 39.0074 15.2107 38.9819 15.2182C38.9565 15.2258 38.933 15.2388 38.9132 15.2566C38.8763 15.3 38.8947 15.3539 38.8987 15.4395C38.9066 15.6592 38.7987 15.7026 38.8434 15.8184C38.8882 15.9342 38.975 15.9 39.0316 16.0105C39.072 16.0921 39.0822 16.1853 39.0605 16.2737C39.1477 16.2527 39.2296 16.2142 39.3013 16.1605C39.55 15.9737 39.5184 15.7066 39.6711 15.6342C39.7684 15.5855 39.9474 15.6105 40.3053 15.925C40.2724 15.7092 40.3105 15.6263 40.3592 15.5895Z" fill="#10B506"/>
<path d="M53.1408 21.0513C52.7461 21.0671 52.4697 21.4342 52.2961 21.7868C51.9816 22.4285 51.8195 23.1341 51.8224 23.8487C51.325 23.7974 50.9118 24.2171 50.6382 24.6382C50.3645 25.0592 50.1118 25.5355 49.6487 25.7289C49.5382 25.7763 49.4079 25.8118 49.35 25.9184C49.3213 25.9842 49.31 26.0562 49.3171 26.1276C49.3171 26.6092 49.3276 27.0921 49.3316 27.575C49.1855 27.4961 49.0421 27.7303 49.1079 27.8829C49.1737 28.0355 49.3316 28.125 49.4395 28.2513C49.7355 28.5961 49.5105 29.2303 49.0645 29.3118C48.7724 29.3645 48.4513 29.2197 48.1868 29.3539C47.9224 29.4882 47.8526 29.8566 47.8276 30.1658C47.7369 30.1257 47.6386 30.1055 47.5394 30.1066C47.4402 30.1078 47.3424 30.1302 47.2526 30.1723C47.1628 30.2145 47.0831 30.2754 47.0189 30.351C46.9546 30.4266 46.9074 30.5151 46.8803 30.6105C47.1855 30.4487 47.4711 30.9776 47.2618 31.2526C47.0526 31.5276 46.6526 31.5513 46.3066 31.5355C45.8092 31.5132 45.2224 31.4039 45.0224 30.9408C44.8382 30.5184 45.0079 29.8684 44.5803 29.696C44.8352 29.6895 45.0848 29.6218 45.3081 29.4986C45.5313 29.3754 45.7217 29.2003 45.8632 28.9882C45.3882 29.1566 44.7987 29.3066 44.4289 28.9632C44.1 28.6566 44.0592 28.0421 43.6237 27.925C43.4408 27.8776 43.2421 27.9461 43.0605 27.8921C42.7868 27.8118 42.6658 27.4974 42.4645 27.2987C42.2934 27.1237 42.0487 27.0184 41.9211 26.8092C41.7934 26.6 41.8132 26.3329 41.7895 26.0855C41.7658 25.8382 41.6487 25.5592 41.4066 25.5079C41.247 25.7068 41.1322 25.9377 41.07 26.185C41.0078 26.4323 40.9996 26.6901 41.0461 26.9408C40.9579 26.9148 40.8759 26.8715 40.8047 26.8134C40.7336 26.7553 40.6747 26.6836 40.6316 26.6025C40.5884 26.5214 40.5619 26.4325 40.5536 26.341C40.5452 26.2496 40.5552 26.1573 40.5829 26.0697C40.6984 25.9012 40.746 25.6953 40.7159 25.4932C40.6859 25.2911 40.5806 25.1079 40.4211 24.9803C40.5289 24.9532 40.6422 24.9557 40.7487 24.9877C40.8552 25.0197 40.9512 25.0798 41.0263 25.1618C41.1467 25.0098 41.2121 24.8215 41.2119 24.6276C41.1908 24.4368 40.9829 24.2592 40.8092 24.3421C40.6776 24.4066 40.6224 24.5882 40.4803 24.6342C40.3382 24.6803 40.2171 24.5829 40.0855 24.6145C39.8803 24.6618 39.854 24.9395 39.7368 25.1132C39.579 25.3474 39.2592 25.3855 38.9855 25.4513C38.7118 25.5171 38.4013 25.7079 38.4329 25.9882C38.4132 26.1013 38.6066 26.0618 38.7184 26.0921C38.8684 26.1329 38.8605 26.3645 38.7553 26.4789C38.65 26.5934 38.4921 26.6539 38.3947 26.775C38.1105 27.1237 38.5197 27.6316 38.9408 27.7895C39.3618 27.9474 39.8816 28.0158 40.1053 28.4066C39.7934 28.4487 39.4316 28.525 39.2974 28.8105C39.1237 29.1803 39.4039 29.7645 39.0342 29.9513C38.7711 30.0829 38.4961 29.8303 38.3171 29.6026C38.1039 29.3654 37.9409 29.0875 37.8382 28.7855C37.7579 28.4789 37.8276 28.1079 38.0895 27.9276C38.0474 27.8079 37.8579 27.8908 37.804 28.0066C37.75 28.1224 37.7026 28.2789 37.575 28.2842C37.4842 28.2842 37.4171 28.2026 37.3658 28.1276L36.6263 27.0303C36.9263 27.1 37.3592 27.0895 37.4066 26.7842L37.8408 27.6737C37.8806 26.9836 37.9747 26.2977 38.1224 25.6224C38.0077 25.5931 37.8861 25.6079 37.7818 25.6639C37.6775 25.72 37.5981 25.8132 37.5592 25.925C37.5107 25.6847 37.5579 25.435 37.6908 25.2289C37.4211 25.0408 36.9868 25.3487 37.075 25.6645C36.2408 26.1908 35.9671 27.4303 36.5026 28.2566L36.2105 28.1092C36.2215 28.2462 36.2653 28.3785 36.3381 28.4951C36.4109 28.6116 36.5107 28.709 36.629 28.7789C36.6355 28.6618 36.6434 28.546 36.65 28.4289C36.7244 28.3851 36.8129 28.3718 36.8968 28.3919C36.9808 28.412 37.0536 28.464 37.1 28.5368C37.0489 28.5842 37.0101 28.6434 36.9872 28.7093C36.9643 28.7751 36.9578 28.8456 36.9684 28.9145L36.5737 28.9276C36.5937 29.0605 36.6489 29.1857 36.7336 29.29C36.8182 29.3944 36.9293 29.4741 37.0553 29.521C37.0049 29.5453 36.9648 29.5867 36.9421 29.6378C36.9195 29.6889 36.9157 29.7464 36.9316 29.8C36.9987 29.9566 37.175 30.0368 37.2737 30.1763C37.3724 30.3158 37.2855 30.5895 37.125 30.5329L36.5079 30.0184C36.4898 30.0938 36.4541 30.1639 36.4038 30.2228C36.3535 30.2818 36.29 30.3281 36.2184 30.3579C36.4263 30.4776 36.3908 30.7947 36.2658 30.9987C36.2053 31.0987 36.1342 31.1921 36.0658 31.2908C37.443 32.5371 39.0279 33.5324 40.7487 34.2316C41.1434 34.1592 41.529 34.0237 41.9197 34.0868C42.5145 34.1816 43.0434 34.7289 43.6303 34.5803C43.9263 34.5053 44.1487 34.2645 44.4197 34.1303C44.7882 33.95 45.2211 33.9724 45.6197 33.8737C46.0184 33.775 46.4316 33.4553 46.3816 33.0474C45.8284 33.433 45.163 33.6246 44.4895 33.5921L46.6474 32.8263C47.2961 32.5961 48.0776 32.1684 47.9974 31.4829C47.9708 31.3722 47.9585 31.2586 47.9605 31.1447C48 30.8671 48.3184 30.75 48.5447 30.5816C48.7711 30.4132 48.8697 29.9803 48.5961 29.9237C48.6026 29.6224 49.0592 29.6605 49.3474 29.575C49.8882 29.4105 50.0434 28.5224 50.6079 28.5316C50.8079 28.5316 50.979 28.6632 51.1579 28.7513C51.9 29.1092 52.7974 28.7618 53.4553 28.2671C54.1132 27.7724 54.6737 27.1276 55.4211 26.7803C56.8684 26.1092 57.6316 26.7329 59.0645 26.1092C59.6276 25.8632 60.3882 25.371 61.0947 24.2671C61.0961 24.2409 61.0915 24.2147 61.0813 24.1905C61.071 24.1663 61.0554 24.1448 61.0355 24.1276C60.9039 24.0355 60.6408 24.3066 60.1566 24.4947C60.0058 24.5648 59.8444 24.6092 59.679 24.6263C59.1158 24.6395 58.7908 24.0092 58.3408 23.6711C57.7737 23.2461 56.9513 23.2763 56.4013 22.8289C55.9711 22.4789 55.7434 21.8605 55.2079 21.7013C54.9329 21.6184 54.6303 21.6816 54.354 21.6053C53.9184 21.4737 53.5882 21.0329 53.1408 21.0513ZM41.6618 28.3434C41.6526 28.2934 41.6855 28.2461 41.6947 28.1961C41.6951 28.1493 41.6851 28.1031 41.6653 28.0607C41.6454 28.0184 41.6164 27.981 41.5803 27.9513L41.6316 28.0184C41.6071 28.0028 41.589 27.979 41.5803 27.9513C41.5797 27.9452 41.5797 27.939 41.5803 27.9329C41.6158 27.9171 41.6513 27.95 41.6763 27.9789L41.8711 28.2066C41.9328 28.2736 41.9863 28.3478 42.0303 28.4276C42.0564 28.4899 42.0863 28.5506 42.1197 28.6092C42.1868 28.7039 42.3066 28.7632 42.3487 28.8724C42.3604 28.9037 42.3649 28.9373 42.3617 28.9706C42.3585 29.0038 42.3478 29.036 42.3303 29.0645C42.2313 29.0238 42.1514 28.9472 42.1066 28.85C42.0977 28.8273 42.0871 28.8054 42.075 28.7842C42.0566 28.7599 42.0349 28.7382 42.0105 28.7197C41.9566 28.6724 41.9066 28.6211 41.8566 28.5697L41.725 28.4382C41.694 28.4145 41.6718 28.3812 41.6618 28.3434ZM41.1355 28.8013C41.128 28.7935 41.1221 28.7842 41.1183 28.774C41.1144 28.7638 41.1127 28.753 41.1132 28.7421C41.1178 28.727 41.127 28.7137 41.1395 28.7039C41.187 28.6496 41.2467 28.6074 41.3137 28.5806C41.3807 28.5539 41.4532 28.5434 41.525 28.55C41.5697 28.5605 41.6211 28.6053 41.5974 28.6461C41.5737 28.6868 41.5408 28.675 41.5079 28.6803C41.475 28.6855 41.4368 28.7118 41.4487 28.7421C41.5329 28.7357 41.6175 28.747 41.697 28.7754C41.7766 28.8037 41.8493 28.8484 41.9105 28.9066C41.9355 28.9303 41.7697 29.1039 41.7474 29.1184C41.6763 29.1645 41.5474 29.1566 41.504 29.2382C41.4211 29.3987 41.779 29.5605 41.8829 29.6105C41.9629 29.6557 42.0543 29.6768 42.1461 29.671C42.1817 29.6619 42.2185 29.6579 42.2553 29.6592C42.2737 29.6598 42.2912 29.6674 42.3044 29.6803C42.3175 29.6932 42.3253 29.7105 42.3263 29.7289C42.3241 29.7406 42.3196 29.7518 42.3131 29.7617C42.3065 29.7717 42.2981 29.7802 42.2882 29.7868C42.2548 29.8122 42.2164 29.8302 42.1756 29.8395C42.1347 29.8488 42.0924 29.8492 42.0513 29.8408C41.9594 29.8075 41.8733 29.76 41.7961 29.7C41.6727 29.6273 41.5312 29.5912 41.3882 29.596C41.3681 29.5993 41.3477 29.5993 41.3276 29.596C41.308 29.5902 41.2903 29.5793 41.2763 29.5645C41.2376 29.5273 41.2108 29.4794 41.1993 29.4269C41.1878 29.3744 41.1922 29.3197 41.2119 29.2697C41.2388 29.2238 41.2621 29.1758 41.2816 29.1263C41.2927 29.0658 41.2805 29.0032 41.2474 28.9513C41.2129 28.8989 41.1751 28.8488 41.1342 28.8013H41.1355ZM40.8053 30.0066C40.7624 29.9372 40.7342 29.8597 40.7224 29.7789C40.6971 29.7054 40.648 29.6424 40.5829 29.6C40.5329 29.5671 40.4658 29.5342 40.4671 29.4684C40.4691 29.4476 40.4773 29.4278 40.4908 29.4118C40.5421 29.3421 40.6355 29.3132 40.6829 29.2408C40.6987 29.2171 40.7092 29.1895 40.7237 29.1658C40.746 29.13 40.7779 29.1013 40.8158 29.0829C40.8346 29.0738 40.8554 29.0692 40.8763 29.0697C40.9434 29.0763 40.9737 29.1579 40.9829 29.225C41.0082 29.3265 41.014 29.4319 41 29.5355C40.9789 29.6053 40.8882 29.6263 40.8961 29.7118C40.9006 29.7385 40.9104 29.764 40.925 29.7868L41.0237 29.9737C41.0297 29.9826 41.032 29.9934 41.0303 30.0039C41.0273 30.0107 41.0222 30.0162 41.0158 30.0197C40.9847 30.0432 40.9463 30.0547 40.9074 30.0523C40.8686 30.0499 40.8319 30.0337 40.804 30.0066H40.8053Z" fill="#10B506"/>
<path d="M36.371 7.44343L36.8342 7.47369C37.0743 8.02671 37.2176 8.61688 37.2579 9.21843C37.1902 9.24375 37.1303 9.28633 37.0841 9.34196C37.0379 9.39759 37.0071 9.46432 36.9947 9.53553L37.2908 9.58685C37.4168 9.66761 37.5218 9.77734 37.5969 9.90689C37.6719 10.0364 37.715 10.182 37.7223 10.3316C37.6802 10.4197 37.5381 10.3697 37.4934 10.2842C37.4487 10.1987 37.4473 10.0908 37.3855 10.0211C37.3572 9.99475 37.3237 9.97459 37.2872 9.96185C37.2506 9.94911 37.2119 9.94406 37.1733 9.94702C37.1348 9.94999 37.0972 9.96091 37.0631 9.97908C37.029 9.99726 36.999 10.0223 36.975 10.0526C36.8839 10.1821 36.8414 10.3396 36.8552 10.4974C36.8552 11.0145 37.0145 11.5776 36.7447 12.0184C36.6566 12.1605 36.5263 12.2816 36.5066 12.4513C36.5051 12.6138 36.5626 12.7714 36.6684 12.8947C36.9175 13.2516 37.2101 13.5761 37.5395 13.8605C37.8026 14.0921 38.1171 14.3026 38.4697 14.3303C38.8223 14.3579 39.2131 14.1355 39.2592 13.7869L38.921 13.5671C38.7802 13.4803 38.8987 13.25 39.0526 13.1855C39.2066 13.1211 39.3987 13.1053 39.4908 12.9658C39.6013 12.7961 39.4631 12.5579 39.2763 12.4776C39.0895 12.3974 38.8816 12.4263 38.6763 12.4303C38.1671 12.4408 37.5947 12.2395 37.4 11.7724C37.5803 11.7213 37.7706 11.7164 37.9534 11.758C38.1361 11.7996 38.3055 11.8865 38.446 12.0105C38.4127 11.5891 38.5003 11.1668 38.6987 10.7934C38.7271 11.1662 38.8931 11.5152 39.1645 11.7724C39.3215 11.8931 39.4697 12.0251 39.6079 12.1671C39.9302 12.5619 39.8237 13.204 39.4566 13.5619L39.8513 13.654C39.7263 13.9776 40.1145 14.2434 40.3776 14.4579C40.7261 14.7367 40.9602 15.1337 41.0355 15.5737C41.1205 15.3768 41.2568 15.2064 41.4302 15.0803C41.6131 14.9711 41.8908 14.9908 41.9921 15.1776C42.0934 15.3645 41.9921 15.5566 41.9658 15.7513C41.9686 15.9607 42.0544 16.1604 42.2044 16.3065C42.3545 16.4526 42.5564 16.5331 42.7658 16.5303C42.9752 16.5275 43.1748 16.4416 43.3209 16.2916C43.467 16.1416 43.5475 15.9397 43.5447 15.7303C43.4921 15.4874 43.3711 15.2646 43.196 15.0882C42.9662 14.8227 42.7005 14.5907 42.4066 14.3987C42.3063 14.3457 42.2195 14.2705 42.1526 14.179C42.0487 14.0013 42.1223 13.7671 42.0473 13.5763C41.9723 13.3855 41.775 13.2434 41.825 13.0566C41.8557 12.9774 41.9087 12.9088 41.9776 12.8592L43.2934 11.7132L42.6723 11.8684C42.7895 11.775 42.5631 11.6053 42.4447 11.6921C42.3263 11.779 42.3131 11.9553 42.2842 12.1026C42.2362 12.2824 42.1311 12.4416 41.9846 12.5562C41.8381 12.6709 41.6583 12.7347 41.4723 12.7382C41.4692 12.5742 41.4986 12.4113 41.5588 12.2588C41.619 12.1063 41.7089 11.9672 41.8231 11.8496C41.9374 11.7321 42.0739 11.6383 42.2246 11.5738C42.3753 11.5092 42.5373 11.4752 42.7013 11.4737C42.8934 11.4803 43.0881 11.5342 43.2763 11.4921C43.4645 11.45 43.6408 11.2566 43.5697 11.0776C43.4881 10.875 43.2052 10.8842 42.9881 10.8987C42.771 10.9132 42.4737 10.8079 42.5131 10.5934C42.5671 10.304 43.0395 10.4697 43.2921 10.3237C43.5118 10.1921 43.5 9.87501 43.4237 9.63422C43.3473 9.39343 43.2302 9.12764 43.3368 8.89738C43.5381 8.46449 44.5802 9.19869 44.8131 9.32632L44.4184 9.58948C44.6949 9.71856 44.9386 9.90836 45.1316 10.1447L44.4631 10.0869C44.4079 10.4658 44.3566 10.8763 44.5316 11.2158C44.5962 11.3134 44.6467 11.4198 44.6816 11.5316C44.775 12.0132 43.9552 12.2619 43.9763 12.7513C43.4302 12.6553 42.9539 13.2276 42.9329 13.7803C42.9118 14.3329 43.196 14.8461 43.4789 15.3237C43.8052 15.8829 44.2868 16.5211 44.9263 16.4316C45.2751 16.8438 45.6862 17.199 46.1447 17.4842C46.2674 17.5765 46.4162 17.6277 46.5697 17.6303C46.7197 17.6197 46.85 17.5237 46.9947 17.4816C47.3447 17.379 47.6973 17.5961 48.025 17.7579C48.3526 17.9197 48.8026 18.0079 49.0368 17.729C49.2118 17.5197 49.1763 17.1934 49.3408 16.9763C49.6197 16.6066 50.3316 16.7132 50.4947 16.2803C50.6092 15.9763 50.3395 15.6605 50.3329 15.3342C50.3329 15.0947 50.4645 14.8224 50.3118 14.6329C50.2263 14.5237 50.0645 14.4816 50.0039 14.3566C49.8421 14.0276 50.5197 13.8303 50.5302 13.4671C50.5302 13.3566 50.4658 13.2487 50.4868 13.1395C50.5223 12.9553 50.775 12.9026 50.9487 12.9711C51.1223 13.0395 51.2618 13.1803 51.4355 13.2487C52.1368 13.5224 52.8368 12.5026 53.5539 12.729C53.796 12.8053 53.9737 13.0105 54.2 13.1237C54.5631 13.3105 54.9973 13.2461 55.4026 13.2C56.3717 13.0937 57.3512 13.1314 58.3092 13.3119C58.3908 12.9171 57.9145 12.6605 57.7237 12.304C57.5921 12.0408 57.6145 11.7092 57.4605 11.4513C57.1723 10.954 56.4487 11 55.9276 10.7553C55.0381 10.3355 54.6697 9.00264 53.6908 8.94212C53.4092 8.9237 53.1329 9.02501 52.85 9.03422C51.4658 9.07896 50.725 7.03817 49.3394 7.03817C49.2829 7.03174 49.2256 7.04055 49.1735 7.06368C49.1215 7.08682 49.0766 7.12343 49.0434 7.16975C48.9118 7.43291 49.4895 7.69606 49.325 7.95264C49.29 7.9963 49.2448 8.03066 49.1934 8.05264L48.2895 8.55264C47.3921 9.05264 46.3908 9.56843 45.3868 9.34869L45.3066 8.98159C46.3843 8.37971 47.5451 7.94032 48.7513 7.67764C48.6421 6.59343 47.5526 5.70396 46.4684 5.82369C46.4111 5.82389 46.3544 5.83564 46.3017 5.85825C46.249 5.88085 46.2015 5.91386 46.1618 5.95527C46.0645 6.08027 46.1145 6.25922 46.1039 6.41712C46.0645 6.96448 45.3487 7.13291 44.7987 7.15264C44.7776 7.02106 44.7552 6.89738 44.7342 6.76975C45.0776 6.78422 45.5237 6.72369 45.5987 6.38685C45.6022 6.27882 45.6181 6.17155 45.646 6.06712C45.6947 5.9658 45.8066 5.91317 45.8816 5.83027C45.9239 5.77471 45.952 5.70967 45.9634 5.64079C45.9749 5.57191 45.9693 5.50127 45.9473 5.43501C45.9253 5.36875 45.8874 5.30888 45.8369 5.26059C45.7865 5.2123 45.725 5.17705 45.6579 5.1579C45.8592 4.96843 46.1842 5.03817 46.4473 5.00396C46.7105 4.96975 47 4.62106 46.7842 4.45001C47.8285 4.43867 48.8709 4.35602 49.9039 4.20264C49.7557 4.04659 49.5764 3.92333 49.3776 3.8408C48.4964 3.69109 47.6043 3.61539 46.7105 3.61448C42.9165 3.61008 39.2471 4.96893 36.371 7.44343ZM51.5618 9.46449C51.7079 9.53958 51.839 9.64081 51.9487 9.76317C51.9816 9.79343 52.0184 9.83553 52.0026 9.87632L51.85 9.83027L51.5329 9.7329C51.4728 9.72018 51.4164 9.6936 51.3684 9.65527C51.3459 9.6412 51.3288 9.61999 51.3198 9.59503C51.3108 9.57008 51.3105 9.54282 51.3188 9.51764C51.3271 9.49246 51.3437 9.47081 51.3658 9.45616C51.3879 9.44151 51.4143 9.43471 51.4408 9.43685C51.4826 9.43756 51.5238 9.44697 51.5618 9.46449ZM42.4276 8.41185C42.4811 8.49657 42.5135 8.59291 42.5219 8.69276C42.5304 8.7926 42.5148 8.89301 42.4763 8.98554C42.4079 9.14475 42.2697 9.28159 42.2618 9.45396C42.2473 9.72501 42.5473 9.90659 42.6263 10.1671C42.646 10.2303 42.6381 10.3184 42.575 10.3369C42.5118 10.3553 42.4802 10.3158 42.4368 10.2921C42.246 10.1895 42.0131 10.3066 41.7973 10.2921C41.7152 10.287 41.6353 10.2633 41.5635 10.223C41.4917 10.1827 41.43 10.1267 41.3829 10.0592C41.3611 10.0312 41.3483 9.99726 41.346 9.96185C41.346 9.7908 41.6737 9.80001 41.6974 9.63027C41.7105 9.53817 41.6184 9.46843 41.5381 9.42106L41.275 9.26975C41.23 9.24853 41.1917 9.21529 41.1644 9.17369C41.1574 9.16305 41.1527 9.15106 41.1506 9.13849C41.1484 9.12593 41.1489 9.11305 41.152 9.10068C41.1551 9.08832 41.1607 9.07672 41.1685 9.06664C41.1763 9.05656 41.1861 9.04821 41.1973 9.04211C41.3618 8.95527 41.5263 8.84738 41.7 8.77896C41.8158 8.73159 41.9631 8.73554 42.0342 8.60922C42.1052 8.48291 42.0737 8.33554 42.1868 8.28817C42.2789 8.25659 42.375 8.33027 42.4276 8.41054V8.41185ZM43.3921 6.79606C43.4061 6.83893 43.4089 6.88467 43.4001 6.92891C43.3913 6.97315 43.3714 7.0144 43.3421 7.04869C43.2822 7.11555 43.2109 7.17124 43.1316 7.21317L42.9355 7.3329C42.9033 7.35908 42.8625 7.37223 42.821 7.36975C42.7802 7.36317 42.75 7.32896 42.7145 7.31053C42.6776 7.29587 42.6374 7.29205 42.5984 7.29951C42.5595 7.30697 42.5235 7.3254 42.4947 7.35264C42.4382 7.40709 42.3883 7.46804 42.346 7.53422C42.2381 7.67541 42.0962 7.78698 41.9336 7.85853C41.7709 7.93008 41.5928 7.95929 41.4158 7.94343C41.3869 7.94317 41.3589 7.93397 41.3355 7.91712C41.3 7.88554 41.3026 7.82896 41.3013 7.78554C41.2971 7.68749 41.2633 7.59301 41.2044 7.51456C41.1454 7.4361 41.064 7.37736 40.971 7.34606C40.9598 7.27196 40.9733 7.19622 41.0095 7.13057C41.0456 7.06492 41.1024 7.01302 41.171 6.9829C41.3097 6.92522 41.4629 6.91234 41.6092 6.94606C41.6816 6.9579 41.5158 7.17106 41.5118 7.18422C41.4901 7.22503 41.4844 7.27246 41.4959 7.31724C41.5073 7.36202 41.5351 7.40092 41.5737 7.42632C41.6181 7.44655 41.667 7.45499 41.7156 7.45084C41.7642 7.44669 41.8109 7.43009 41.8513 7.40264C41.894 7.37535 41.9318 7.3411 41.9631 7.30133C42.0079 7.23511 42.0492 7.16659 42.0868 7.09606C42.2684 6.81185 42.6329 6.71185 42.9671 6.6658C43.1263 6.63817 43.3289 6.64738 43.3921 6.79475V6.79606Z" fill="#10B506"/>
<path d="M21.0263 10.2052C21.0263 10.2052 20.3895 12.1789 22.6277 13.8579C22.6171 13.8724 20.204 13.0408 19.8263 11.425C19.3684 9.46841 21.0513 7.94867 21.0513 7.94867C21.1698 8.99209 22.2 9.92235 22.4606 10.6789C22.7882 11.625 22.2079 12.3724 22.0553 12.7921C21.4882 12.2802 21.0421 11.2276 21.0263 10.2052Z" fill="#617636"/>
<path d="M23.6618 14.6619C23.5447 14.6079 23.425 14.5553 23.2987 14.5053C21.7447 13.879 19.9342 13.7053 18.4816 14.2276C15.6566 15.2447 15.1132 18.7842 15.1132 18.7842C16.4289 17.925 18.4816 18.2158 19.5961 17.7974C20.9947 17.2711 21.2987 15.8908 21.6355 15.3145C20.5066 15.1526 18.8724 15.6434 17.6816 16.6026C18.0772 15.9718 18.6406 15.4637 19.3088 15.135C19.9769 14.8064 20.7234 14.6704 21.4645 14.7421C22.6487 14.8303 24.4684 15.6198 25.3039 18.0632C24.6671 17.2395 23.6184 16.5092 21.9316 16.7316C21.9316 16.7316 23.9053 16.6329 25.1026 18.7053C25.4662 19.3384 25.6821 20.0455 25.7342 20.7737C25.7513 20.7632 25.7671 20.7513 25.7855 20.7421C26.0401 20.6108 26.3337 20.5762 26.6118 20.6448C26.6355 19.2829 26.5355 17.829 25.6566 16.4342C25.1803 15.675 22.2711 12.5763 24.3316 10.4684C24.3316 10.4592 22.1211 11.7737 23.6618 14.6619Z" fill="#A4B000"/>
<path d="M21.6881 25.4934C21.5973 25.546 21.5013 25.5974 21.4026 25.6474C20.171 26.2697 18.6986 26.5395 17.4697 26.2131C15.0815 25.5763 14.3881 22.7105 14.3881 22.7105C15.5236 23.325 17.1894 22.9408 18.1342 23.2066C19.3184 23.5395 19.6644 24.6539 19.9763 25.1C19.0552 25.3118 17.6868 25.0237 16.6434 24.3197C17.0119 24.8099 17.5098 25.1876 18.0811 25.4105C18.6524 25.6334 19.2745 25.6927 19.8776 25.5816C20.8447 25.425 22.2789 24.65 22.7921 22.5881C22.3289 23.3079 21.5197 23.9816 20.121 23.9171C20.121 23.9171 21.7447 23.8592 22.5829 22.075C22.8367 21.5297 22.9644 20.9343 22.9565 20.3329L23 20.3566C23.2184 20.4463 23.462 20.4537 23.6855 20.3776C23.8 21.4934 23.8171 22.6934 23.1973 23.9013C22.8592 24.5592 20.6908 27.3039 22.5289 28.8881C22.5329 28.8934 20.6276 27.971 21.6881 25.4934Z" fill="#A4B000"/>
<path d="M15.6434 21.2105C17.7145 21.7092 19.7987 21.4737 21.8881 21.2303C22.9131 21.1079 23.9934 20.9316 25.0276 21.1197C26.0052 21.2987 26.8697 21.6461 27.8855 21.6803C28.9013 21.7145 28.9013 20.1329 27.8855 20.1013C26.9474 20.0711 26.1184 19.7066 25.2026 19.5566C24.1789 19.3974 23.1566 19.5026 22.1355 19.6224C20.121 19.8579 18.0645 20.1697 16.0631 19.6882C15.075 19.45 14.6539 20.9724 15.6434 21.2105Z" fill="#4D5D12"/>
<path d="M5.74999 19.1921C6.20001 19.5863 6.71395 19.9009 7.26972 20.1224C5.59077 20.5316 4.06051 21.2237 2.92104 22.3395C-1.13291 26.3092 0.215773 32.3868 0.215773 32.3868C2.15656 30.15 6.04735 29.6237 7.86051 28.2882C10.1329 26.6132 9.97762 23.9461 10.2934 22.7263C8.15656 23.0105 5.43551 24.7434 3.76446 27.1C3.76446 27.1 5.6342 20.8316 14.7224 21.1553C17.0618 21.2395 19.0776 21.3382 19.0776 21.3382C18.2881 20.7539 17.4039 20.45 16.7829 19.8026C16.5723 19.7684 16.3631 19.7276 16.1539 19.6895C16.1539 19.6895 14.85 19.7013 14.8552 19.7066C13.725 19.6329 12.4868 19.6842 11.2434 19.6184C7.19472 19.4053 6.1763 15.9342 6.1763 15.9342C7.38156 17.4816 9.28025 18.5737 10.7395 18.6974C10.4881 17.879 10.5105 16.0658 8.9184 14.9987C7.64735 14.1487 4.99209 13.9118 3.60656 12.4526C3.60656 12.4592 2.87893 16.6237 5.74999 19.1921Z" fill="#4D5D12"/>
<path d="M77.4526 15.3408C76.296 15.3974 75.8368 15.7868 75.6579 16.4145C75.4434 16.3974 75.2355 16.3881 75.0408 16.3881C73.6789 16.3881 73.2434 16.8421 73.1039 17.5171V19.8079C73.2434 20.4829 73.6789 20.9368 75.0408 20.9368C75.2645 20.9368 75.5039 20.925 75.7526 20.9013C76.0053 21.5487 76.5579 21.971 77.7605 21.971C77.9276 21.971 78.0921 21.971 78.2539 21.95H82.175V20.7816H84.3566C84.7171 20.7816 84.9829 20.5447 84.9987 20.2645C85.0145 19.9842 84.6921 19.7487 84.3566 19.7487H82.175V18.6618V17.6697H84.3539C84.7145 17.6697 84.9803 17.4329 84.996 17.1526C85.0118 16.8724 84.6895 16.6355 84.3539 16.6355H82.175V15.3329H77.4526V15.3408ZM78.6368 18.6158L81.1803 18.3526L77.2224 19.5131L78.025 18.3763L75.7066 18.8316L76.0645 19.0263L75.1605 18.871L75.9263 18.4L75.6776 18.7421L79.6605 17.3737L78.6368 18.6158Z" fill="#4D5D12"/>
<path d="M65.1645 17.9934V19.3092H74.2369V17.9934H65.1645Z" fill="#4D5D12"/>
</g>
<defs>
<clipPath id="clip0_461_2207">
<rect width="85" height="38.1605" fill="white" transform="translate(0 0.419739)"/>
</clipPath>
</defs>
</svg>
