<?xml version="1.0" standalone="no"?>
<!DOCTYPE svg PUBLIC "-//W3C//DTD SVG 20010904//EN"
 "http://www.w3.org/TR/2001/REC-SVG-20010904/DTD/svg10.dtd">
<svg version="1.0" xmlns="http://www.w3.org/2000/svg"
 width="1360.000000pt" height="1360.000000pt" viewBox="0 0 1360.000000 1360.000000"
 preserveAspectRatio="xMidYMid meet">
<metadata>
Created by potrace 1.14, written by Peter Selinger 2001-2017
</metadata>
<g transform="translate(0.000000,1360.000000) scale(0.100000,-0.100000)"
fill="#000000" stroke="none">
<path d="M7437 9854 c-1 -1 -58 -5 -127 -8 -69 -3 -141 -8 -160 -10 -19 -3
-62 -7 -94 -11 -33 -3 -62 -8 -66 -10 -3 -2 -26 -6 -50 -10 -25 -3 -83 -15
-130 -26 -47 -11 -92 -22 -100 -24 -109 -23 -339 -103 -465 -161 -33 -15 -62
-28 -65 -28 -7 -2 -161 -81 -203 -105 -20 -12 -52 -30 -71 -40 -40 -23 -252
-166 -272 -184 -15 -13 -19 -16 -84 -67 -152 -118 -369 -343 -507 -525 -29
-38 -56 -74 -61 -80 -9 -13 -83 -123 -99 -150 -7 -11 -16 -28 -19 -37 -3 -10
-10 -18 -15 -18 -5 0 -9 -6 -9 -14 0 -7 -7 -19 -15 -26 -8 -7 -12 -16 -9 -21
3 -5 2 -9 -3 -9 -4 0 -13 -10 -18 -23 -6 -12 -23 -44 -37 -72 -64 -123 -178
-396 -178 -427 0 -8 -5 -19 -12 -26 -7 -7 -8 -12 -4 -12 5 0 3 -7 -4 -15 -7
-8 -10 -15 -7 -15 3 0 -2 -21 -10 -47 -14 -45 -40 -144 -49 -188 -2 -11 -6
-31 -9 -45 -12 -50 -35 -196 -41 -250 -3 -30 -7 -66 -10 -80 -2 -14 -7 -104
-9 -200 l-5 -175 -33 -1 c-17 -1 -43 2 -57 7 -14 4 -36 10 -50 13 -22 5 -25
10 -26 53 -1 50 -9 120 -19 163 -3 14 -7 37 -10 53 -23 126 -130 323 -260 480
-8 9 -15 20 -15 23 0 3 -13 25 -30 49 -16 24 -30 48 -30 53 0 6 -4 12 -8 14
-10 4 -70 140 -76 172 -3 14 -7 29 -10 34 -14 23 -23 162 -13 212 9 42 33 100
58 138 16 23 25 42 20 42 -18 0 -93 -95 -123 -158 -31 -64 -33 -72 -32 -182 1
-116 8 -150 58 -264 17 -37 17 -38 -1 -31 -48 21 -174 62 -223 73 -30 7 -66
15 -80 18 -44 9 -93 13 -190 14 -84 1 -117 -2 -195 -15 -81 -13 -208 -65 -280
-115 -125 -87 -257 -267 -315 -430 -6 -19 -16 -44 -21 -55 -12 -29 -41 -147
-36 -151 2 -2 19 5 38 15 41 22 158 57 214 65 82 12 131 18 160 21 117 11 172
16 185 19 8 1 33 6 55 11 22 4 45 10 50 14 6 3 16 6 24 8 44 6 178 125 203
179 6 13 15 24 20 24 4 0 8 9 8 19 0 11 4 21 8 23 4 2 22 35 39 73 35 80 34
82 -50 79 -97 -4 -215 -29 -287 -61 -19 -8 -51 -22 -70 -31 -19 -8 -64 -34
-100 -56 -36 -23 -72 -46 -80 -51 -14 -8 14 28 52 67 9 10 22 25 30 35 53 72
230 161 354 179 253 35 498 -72 644 -281 19 -27 37 -52 40 -55 9 -8 68 -133
75 -157 4 -15 -9 -6 -47 30 -61 60 -72 68 -153 106 -68 33 -99 40 -205 48 -75
5 -93 -5 -25 -14 74 -10 191 -67 264 -128 45 -37 114 -118 133 -154 7 -14 15
-28 18 -31 8 -8 49 -103 52 -120 2 -8 -3 -14 -11 -12 -90 19 -365 18 -481 -3
-14 -2 -47 -7 -75 -10 -82 -8 -135 -15 -164 -19 -162 -27 -568 -27 -681 -2
-44 10 -110 17 -160 16 -108 -2 -89 -2 -405 3 -228 4 -374 12 -420 22 -5 1
-28 5 -50 10 -22 4 -44 10 -50 14 -5 3 -19 7 -30 8 -35 5 -166 70 -235 116
-39 27 -152 135 -187 180 -32 40 -88 135 -109 186 l-25 56 56 -62 c31 -34 88
-88 128 -120 40 -32 74 -61 75 -65 2 -5 8 -8 12 -8 5 0 26 -12 47 -26 96 -65
263 -134 364 -149 l47 -7 -14 64 c-36 167 -47 214 -53 223 -3 6 -6 12 -6 15
-9 69 -109 207 -200 276 -43 33 -149 86 -197 99 -5 2 -9 3 -10 5 -2 1 -10 3
-18 5 -25 7 -292 102 -335 120 -121 50 -219 108 -281 167 l-31 29 -3 -53 c-5
-92 -3 -271 3 -318 38 -269 120 -458 278 -645 42 -49 170 -145 240 -181 60
-30 86 -48 62 -42 -17 3 -93 -17 -183 -49 -291 -104 -493 -250 -653 -473 -26
-36 -54 -74 -62 -84 -36 -48 -148 -294 -170 -376 -15 -52 -26 -98 -31 -120 -2
-14 -7 -32 -10 -40 -3 -8 -8 -33 -11 -55 -2 -21 -6 -42 -8 -45 -10 -17 -20
-175 -20 -330 0 -168 8 -279 23 -347 l7 -32 62 59 c51 49 124 102 228 167 37
24 200 100 300 141 53 22 217 86 225 87 3 1 16 6 30 13 14 6 75 32 135 57 135
56 244 123 309 187 26 26 51 48 55 48 7 1 78 106 114 170 26 47 90 220 81 220
-2 0 0 9 5 19 6 10 13 39 16 62 3 24 10 69 15 99 6 30 12 69 14 85 3 17 8 52
12 79 l7 49 -41 -7 c-102 -16 -410 -139 -420 -167 -2 -5 -8 -9 -13 -9 -9 0
-104 -60 -139 -87 -179 -139 -303 -260 -382 -369 -17 -24 -33 -44 -34 -44 -7
0 26 80 56 135 29 53 97 157 132 201 81 101 323 314 356 314 7 0 12 4 12 9 0
4 28 23 63 40 66 34 74 39 124 65 17 9 38 16 47 16 9 0 16 4 16 8 0 5 6 9 13
10 6 0 32 8 56 17 58 21 209 65 241 70 14 3 36 7 50 10 14 3 41 8 60 10 19 3
46 7 60 10 109 24 559 25 650 2 66 -17 138 -25 270 -32 58 -4 110 -8 117 -10
7 -2 15 0 18 5 3 5 18 5 34 0 16 -4 31 -6 34 -4 2 2 41 6 87 9 110 7 234 19
325 31 22 4 56 7 75 9 19 1 61 6 93 10 31 4 57 3 57 -2 0 -38 -64 -192 -98
-236 -66 -86 -196 -178 -269 -191 -48 -9 -38 -18 12 -12 115 15 193 53 273
133 34 34 62 61 62 59 0 -8 -32 -93 -46 -126 -72 -158 -218 -284 -379 -327
-39 -11 -200 -12 -245 -2 -75 16 -182 74 -245 134 l-60 56 60 -30 c133 -66
250 -97 367 -96 48 1 90 4 94 7 10 11 -78 157 -126 207 -51 53 -133 98 -200
107 -25 3 -108 7 -185 9 -191 5 -245 12 -323 39 -22 8 -43 12 -45 9 -3 -3 1
-21 10 -42 27 -63 96 -206 102 -211 3 -3 19 -24 35 -48 69 -101 231 -222 320
-238 16 -3 36 -8 45 -13 20 -10 67 -14 156 -14 91 0 145 6 230 27 75 19 76 19
179 65 74 34 94 38 78 19 -22 -28 -41 -142 -38 -222 4 -99 26 -151 91 -223 52
-58 81 -72 41 -20 -48 62 -68 125 -66 206 2 124 48 249 157 430 71 117 82 139
103 199 40 119 47 166 49 323 l1 46 63 -3 c104 -5 142 -11 275 -44 23 -5 61
-15 85 -20 23 -6 47 -12 52 -14 13 -4 92 -16 128 -20 35 -4 41 -11 43 -44 2
-24 24 -160 39 -237 31 -158 111 -411 182 -575 49 -113 153 -318 184 -362 11
-14 19 -29 19 -32 0 -8 64 -101 73 -104 4 -2 7 -8 7 -13 0 -7 95 -145 110
-159 3 -3 35 -41 70 -85 95 -117 366 -385 390 -385 5 0 10 -4 10 -9 0 -5 42
-40 93 -77 50 -38 94 -72 95 -76 2 -5 10 -8 18 -8 8 0 14 -4 14 -10 0 -5 6
-10 13 -10 8 0 22 -9 32 -20 10 -11 24 -20 32 -20 7 0 13 -4 13 -10 0 -5 6
-10 14 -10 7 0 24 -8 37 -19 25 -19 226 -131 244 -135 6 -2 46 -20 90 -40 75
-35 241 -102 275 -111 8 -2 44 -13 79 -24 95 -31 258 -69 366 -86 11 -2 34 -6
50 -10 43 -9 148 -21 265 -31 88 -7 515 -2 515 6 0 2 31 6 115 15 30 4 57 8
60 10 3 1 25 6 50 9 25 4 52 8 60 9 12 3 105 23 145 32 31 7 72 17 85 22 8 4
20 7 25 8 6 1 12 3 15 4 3 2 12 4 20 6 31 8 167 54 220 75 74 30 94 37 102 39
4 1 39 18 78 37 39 19 75 34 80 34 6 0 10 5 10 12 0 6 3 9 6 6 3 -4 33 9 66
28 33 19 62 34 64 34 7 0 285 179 294 189 3 4 23 19 45 36 424 311 805 814
998 1316 25 63 48 123 52 134 5 11 9 22 10 25 0 3 8 30 17 60 42 139 71 259
83 340 3 14 6 34 9 46 2 12 7 45 11 75 3 30 8 61 10 69 7 24 17 177 20 290 l2
105 586 3 585 2 -2 -32 c-7 -106 64 -191 179 -216 26 -6 91 -11 142 -11 51 0
98 0 103 -1 6 0 10 -6 10 -13 0 -24 69 -94 113 -115 23 -11 65 -24 92 -28 38
-6 508 -8 792 -4 21 0 22 3 20 90 -1 54 2 90 8 91 6 1 89 2 185 4 221 3 203 0
234 32 44 44 23 101 -46 131 -18 7 -29 8 -33 1 -4 -5 -10 -7 -14 -5 -6 4 -71
7 -111 5 -8 0 -49 0 -90 0 -41 1 -86 1 -99 1 -14 0 -26 2 -28 4 -7 6 -5 317 1
323 3 3 83 6 178 6 94 0 186 4 204 9 72 20 82 106 15 140 -27 14 -64 16 -212
16 -99 0 -182 2 -185 5 -3 3 -6 48 -6 101 0 80 -2 96 -16 100 -27 7 -816 1
-828 -6 -6 -4 -23 -9 -38 -12 -52 -9 -110 -52 -139 -103 l-29 -49 -71 2 c-211
6 -327 -65 -330 -201 -1 -36 -5 -54 -13 -51 -6 2 -17 0 -24 -4 -8 -5 -19 -6
-24 -3 -15 10 -198 10 -218 0 -10 -4 -18 -4 -18 0 0 4 -22 8 -50 8 -27 0 -50
-4 -50 -8 0 -5 -5 -5 -11 -1 -16 10 -58 11 -91 2 -16 -3 -28 -4 -28 0 0 9
-224 7 -238 -2 -7 -4 -12 -4 -12 1 0 4 -41 8 -90 8 -50 0 -90 -4 -90 -8 0 -5
-4 -5 -10 -2 -16 10 -81 12 -86 3 -3 -5 -10 -5 -16 -2 -6 4 -33 7 -61 8 -47 1
-51 3 -53 26 -5 74 -24 220 -31 250 -4 14 -7 32 -8 40 -2 23 -25 132 -35 165
-5 17 -11 41 -14 55 -9 46 -60 211 -86 275 -5 11 -15 38 -23 60 -9 22 -23 58
-33 80 -10 22 -18 42 -19 45 -4 17 -105 215 -137 268 -21 34 -38 64 -38 66 0
11 -190 288 -210 306 -3 3 -16 19 -29 35 -76 100 -272 304 -370 385 -30 25
-61 53 -70 63 -8 9 -20 17 -25 17 -5 0 -16 8 -25 18 -15 17 -144 110 -226 164
-230 151 -554 300 -800 369 -78 21 -112 30 -135 34 -14 3 -36 8 -50 12 -14 4
-32 8 -40 9 -8 1 -49 9 -90 17 -66 14 -110 20 -224 33 -60 7 -355 21 -359 18z
m208 -219 c118 -6 167 -11 230 -20 78 -12 83 -13 165 -30 14 -2 36 -6 50 -9
26 -4 104 -24 130 -34 18 -6 27 -9 60 -15 32 -7 232 -78 285 -102 22 -9 91
-42 153 -71 62 -29 115 -53 119 -53 3 0 9 -3 12 -9 3 -5 28 -21 54 -35 56 -32
100 -59 107 -67 3 -4 12 -9 20 -13 16 -7 44 -25 69 -44 9 -6 48 -36 87 -65
203 -153 449 -400 564 -568 13 -19 27 -37 30 -40 9 -7 110 -158 110 -164 0 -3
13 -25 29 -49 35 -51 163 -304 184 -362 8 -22 27 -73 41 -114 47 -125 97 -297
110 -376 2 -11 6 -33 10 -50 3 -16 8 -43 11 -60 2 -16 9 -59 14 -96 33 -210
33 -573 2 -769 -6 -36 -13 -81 -16 -100 -10 -73 -50 -249 -62 -280 -3 -8 -7
-19 -7 -25 -2 -19 -59 -190 -76 -230 -10 -22 -23 -56 -30 -75 -15 -40 -125
-264 -159 -325 -66 -116 -235 -355 -310 -438 -60 -67 -280 -287 -287 -287 -4
0 -12 -6 -18 -13 -26 -31 -257 -207 -272 -207 -4 0 -14 -7 -23 -15 -20 -19
-91 -66 -91 -60 0 2 -17 -7 -37 -21 -49 -33 -270 -144 -288 -144 -7 0 -15 -3
-17 -7 -5 -13 -327 -127 -388 -138 -18 -3 -41 -10 -51 -16 -11 -5 -19 -8 -19
-5 0 3 -15 0 -32 -5 -18 -5 -46 -12 -63 -14 -16 -3 -41 -8 -55 -10 -46 -10
-65 -12 -125 -20 -32 -4 -68 -9 -80 -11 -25 -5 -254 -17 -315 -17 -66 0 -281
12 -310 18 -14 2 -61 9 -105 15 -111 17 -104 15 -165 28 -30 7 -64 14 -75 17
-91 19 -335 98 -425 137 -132 57 -273 127 -345 171 -108 65 -267 175 -349 241
-144 115 -388 362 -455 460 -8 12 -18 23 -21 26 -11 8 -110 150 -110 157 0 3
-8 15 -17 26 -41 45 -196 338 -248 467 -9 25 -21 54 -26 65 -44 98 -127 402
-144 522 -2 13 -6 40 -9 60 -9 53 -16 108 -23 178 -8 88 -8 450 1 520 4 33 9
76 11 95 37 351 197 807 389 1114 31 48 56 92 56 97 0 5 4 9 8 9 4 0 16 15 27
33 86 146 409 494 560 602 15 11 35 27 44 36 19 19 236 169 244 169 4 0 23 11
43 25 47 32 275 148 340 173 27 10 58 23 69 27 11 5 22 9 25 10 3 1 19 7 35
14 17 7 37 14 45 16 8 2 16 4 18 5 1 2 5 3 10 4 4 2 34 11 67 21 63 20 80 24
105 29 8 2 22 6 30 9 18 6 68 19 95 24 11 1 40 7 65 13 25 5 65 12 90 15 25 4
54 8 65 10 62 10 131 16 219 20 55 3 100 6 102 7 3 4 107 1 239 -7z m5089
-2507 c-4 -7 -16 -21 -25 -33 -9 -11 -40 -47 -68 -80 -28 -33 -51 -63 -51 -67
0 -3 19 -4 43 -2 23 3 60 6 82 9 22 2 67 6 100 9 33 4 78 9 100 12 22 3 37 3
34 0 -5 -6 -90 -32 -159 -51 -19 -5 -78 -22 -270 -78 -85 -25 -156 -44 -157
-43 -1 1 25 40 57 86 33 46 59 84 58 86 -3 2 -179 -32 -213 -40 -15 -4 -109
-20 -119 -21 -18 0 -17 -23 1 -28 10 -3 -4 -2 -32 1 -89 9 -91 14 -29 50 54
31 56 31 41 8 -15 -22 -4 -20 166 39 192 66 200 69 260 91 20 8 39 14 42 14 7
1 25 7 85 29 67 24 63 24 54 9z"/>
<path d="M7487 9344 c-1 -1 -67 -4 -147 -8 -80 -4 -156 -8 -170 -10 -14 -2
-45 -7 -70 -11 -25 -3 -52 -7 -60 -9 -8 -1 -33 -6 -55 -10 -22 -5 -76 -17
-120 -28 -44 -11 -86 -21 -92 -21 -7 0 -13 -4 -13 -9 0 -5 -4 -7 -9 -3 -5 3
-20 1 -33 -4 -13 -6 -63 -24 -113 -42 -458 -162 -883 -481 -1177 -882 -20 -29
-41 -56 -45 -62 -28 -35 -79 -119 -110 -177 -8 -15 -19 -30 -24 -33 -5 -4 -7
-10 -4 -15 3 -5 1 -11 -4 -14 -8 -6 -67 -120 -93 -183 -7 -18 -16 -33 -19 -33
-3 0 -6 -6 -6 -12 0 -7 -16 -56 -36 -108 -28 -75 -57 -163 -72 -220 -3 -11
-26 -117 -30 -140 -3 -14 -9 -47 -14 -75 -51 -261 -47 -654 10 -930 19 -91 50
-220 59 -240 5 -11 14 -38 20 -60 6 -22 15 -49 20 -60 4 -11 23 -58 41 -104
114 -295 329 -614 574 -855 94 -93 250 -225 294 -250 9 -5 18 -12 21 -16 12
-15 223 -142 315 -188 88 -44 262 -120 290 -126 6 -1 46 -14 90 -28 86 -28
244 -69 285 -74 14 -1 36 -5 50 -8 26 -6 45 -9 141 -21 93 -11 138 -14 284
-14 202 -1 317 10 500 45 170 33 432 116 533 168 18 9 32 13 32 9 0 -5 4 -3 8
2 4 6 44 28 90 50 45 21 82 43 82 47 0 4 5 8 12 8 19 0 155 88 273 175 165
124 334 284 440 418 17 21 40 50 53 65 29 35 164 235 193 287 118 213 232 502
265 670 2 11 10 50 18 86 8 36 18 88 21 115 4 27 8 60 11 74 17 93 23 419 11
540 -16 147 -21 183 -42 285 -78 367 -229 715 -430 983 -19 26 -45 60 -58 77
-31 42 -155 182 -204 230 -196 196 -406 347 -652 472 -80 41 -147 74 -149 74
-1 -1 -19 6 -40 15 -39 17 -237 84 -262 89 -8 2 -49 12 -90 23 -41 11 -95 23
-120 27 -24 4 -47 8 -50 10 -3 1 -32 6 -65 10 -32 3 -62 8 -65 10 -8 5 -288
23 -293 19z"/>
<path d="M3330 8608 c-14 -17 -30 -36 -36 -42 -23 -25 -83 -137 -103 -194 -18
-50 -36 -162 -33 -207 3 -41 26 -115 49 -158 30 -55 135 -164 180 -188 15 -8
30 -17 33 -20 3 -3 34 -21 70 -38 36 -18 73 -37 82 -42 37 -19 37 -8 1 23
-105 90 -181 208 -210 323 -10 41 -12 185 -3 185 6 0 10 -12 10 -26 0 -84 62
-238 125 -311 18 -21 35 -36 37 -33 2 3 18 37 36 76 21 47 34 93 38 140 7 84
-11 132 -109 280 -74 113 -99 161 -117 222 -7 23 -16 42 -19 42 -3 -1 -17 -15
-31 -32z"/>
</g>
</svg>
