<svg width="16" height="17" viewBox="0 0 16 17" fill="none" xmlns="http://www.w3.org/2000/svg">
<path d="M7.99999 12.25C7.80116 12.2491 7.61053 12.1706 7.46874 12.0312L2.46875 7.03121C2.32785 6.89031 2.2487 6.69922 2.2487 6.49996C2.2487 6.3007 2.32785 6.1096 2.46875 5.96871C2.60964 5.82781 2.80074 5.74866 3 5.74866C3.19925 5.74866 3.39035 5.82781 3.53125 5.96871L7.99999 10.4375L12.4687 5.96871C12.6096 5.82781 12.8007 5.74866 13 5.74866C13.1992 5.74866 13.3903 5.82781 13.5312 5.96871C13.6721 6.1096 13.7513 6.3007 13.7513 6.49996C13.7513 6.69922 13.6721 6.89031 13.5312 7.03121L8.53124 12.0312C8.38945 12.1706 8.19883 12.2491 7.99999 12.25Z" fill="black"/>
</svg>
