<svg width="24" height="25" viewBox="0 0 24 25" fill="none" xmlns="http://www.w3.org/2000/svg">
<path d="M21.75 3.5C22.9922 3.5 24 4.50734 24 5.75C24 6.45781 23.6672 7.12344 23.1 7.55L12.9 15.2C12.6401 15.394 12.3244 15.4988 12 15.4988C11.6756 15.4988 11.3599 15.394 11.1 15.2L0.9 7.55C0.333422 7.12344 0 6.45781 0 5.75C0 4.50734 1.00734 3.5 2.25 3.5H21.75ZM10.2 16.4C10.719 16.7902 11.3507 17.0012 12 17.0012C12.6493 17.0012 13.281 16.7902 13.8 16.4L24 8.75V18.5C24 20.1547 22.6547 21.5 21 21.5H3C1.34297 21.5 0 20.1547 0 18.5V8.75L10.2 16.4Z" fill="#006400"/>
</svg>
