<svg width="16" height="16" viewBox="0 0 16 16" fill="none" xmlns="http://www.w3.org/2000/svg">
<path d="M14.8912 5.61544L10.7617 5.01424L8.91637 1.27922C8.75048 0.945473 8.42689 0.776764 8.10329 0.776764C7.78167 0.776764 7.46034 0.943216 7.29389 1.27922L5.44796 5.01396L1.31825 5.6146C0.577681 5.7218 0.280889 6.63278 0.817768 7.1547L3.80516 10.0606L3.09816 14.1649C2.99773 14.7511 3.46577 15.2214 3.98995 15.2214C4.12904 15.2214 4.27207 15.1884 4.40947 15.1156L8.10386 13.178L11.798 15.1162C11.9351 15.1881 12.0778 15.2209 12.2164 15.2209C12.7411 15.2209 13.21 14.7523 13.1096 14.1657L12.4034 10.0611L15.3914 7.15583C15.9285 6.6339 15.6317 5.72265 14.8912 5.61544ZM11.4566 9.09119L10.9454 9.58829L11.0661 10.2902L11.6168 13.4909L8.73553 11.979L8.10414 11.6478L8.10499 2.69915L9.54466 5.61319L9.86007 6.25163L10.5657 6.35432L13.7883 6.82349L11.4566 9.09119Z" fill="#006400"/>
</svg>
