<svg width="32" height="32" viewBox="0 0 32 32" fill="none" xmlns="http://www.w3.org/2000/svg">
<path d="M29.725 24.0063C29.3563 24.6438 28.6813 25 27.9938 25C27.6394 25.0001 27.2914 24.9057 26.9856 24.7266L25.4175 23.8116L25.7537 25.0797C25.9658 25.8803 25.4877 26.7028 24.6862 26.9134C24.5606 26.9475 24.431 26.9646 24.3009 26.9643C23.6366 26.9643 23.0284 26.5209 22.8503 25.8493L21.7416 21.6667L18 19.4813V23.8875L21.0238 26.9425C21.6074 27.5324 21.6015 28.4812 21.0121 29.0637C20.7188 29.3562 20.3375 29.5 19.9563 29.5C19.5692 29.5 19.1819 29.3516 18.8888 29.0547L18 28.1566V30C18 31.1056 17.1038 32 15.9981 32C14.8925 32 13.9963 31.1056 13.9963 30V28.1562L13.1075 29.0544C12.5249 29.6442 11.5744 29.6481 10.9844 29.0661C10.3949 28.4841 10.3891 27.5349 10.9726 26.9449L13.9964 23.8899L13.9438 19.4813L10.2019 21.6644L9.09313 25.8469C8.91513 26.5187 8.30688 26.9619 7.64251 26.9619C7.51532 26.9619 7.38626 26.9462 7.25726 26.9111C6.45601 26.7001 5.97788 25.8779 6.18976 25.0773L6.52594 23.8092L4.95782 24.7242C4.69438 24.9125 4.34751 25 4.00438 25C3.31626 25 2.64563 24.6445 2.27376 24.0075C1.71551 23.0544 2.03719 21.83 2.99251 21.2731L4.61501 20.3263L3.34438 19.982C2.54376 19.7688 2.07188 18.9437 2.28876 18.1437C2.50563 17.3438 3.32688 16.875 4.13063 17.0875L8.25001 18.2062L12.0313 16L8.25001 13.7937L4.13063 14.9125C4.00213 14.9472 3.86966 14.9649 3.73657 14.9653C3.07594 14.9653 2.46969 14.5258 2.28907 13.8577C2.07188 13.0562 2.54376 12.2375 3.34438 12.0188L4.61501 11.6745L2.99251 10.725C2.03751 10.1684 1.71563 8.94375 2.27376 7.99062C2.82907 7.03562 4.05501 6.71312 5.01188 7.27187L6.58001 8.18688L6.24376 6.91875C6.03188 6.11937 6.51251 5.29688 7.25626 5.08625C8.11876 4.86937 8.88126 5.35188 9.15 6.15063L10.2588 10.3331L13.9438 12.5188V8.1125L10.975 5.055C10.3938 4.465 10.3938 3.51562 10.9875 2.93375C11.575 2.34937 12.525 2.3575 13.1125 2.94563L14.0013 3.84375L13.9438 2C13.9438 0.894375 14.84 0 15.9456 0C17.0513 0 17.9475 0.894375 17.9475 2V3.84375L18.8363 2.94563C19.4179 2.35775 20.3681 2.34994 20.9594 2.93388C21.5489 3.51594 21.5547 4.46513 20.9711 5.05513L17.9474 8.11012L18 12.5188L21.7419 10.3356L22.8506 6.15312C23.0628 5.35437 23.8856 4.87187 24.6869 5.08875C25.4881 5.29969 25.9663 6.12188 25.7544 6.9225L25.4182 8.19063L26.9863 7.27563C27.9413 6.719 29.1682 7.04125 29.7244 7.99438C30.2827 8.9475 29.961 10.1719 29.0057 10.7288L27.3832 11.6756L28.6538 12.0199C29.4544 12.2367 29.9269 13.0611 29.7094 13.8599C29.5285 14.528 28.9226 14.9674 28.2619 14.9674C28.1319 14.9674 27.9999 14.9498 27.8679 14.9146L23.6938 13.7937L19.9688 16L23.7475 18.205L27.8694 17.0881C28.675 16.875 29.4938 17.3438 29.7125 18.1437C29.9296 18.9425 29.4574 19.7669 28.6569 19.9837L27.3863 20.328L29.0088 21.2749C29.9625 21.8313 30.2813 23.0562 29.725 24.0063Z" fill="white"/>
</svg>
